mtllib new-0.mtl
v 0.031922 -0.622083 0.094339
v 0.034382 -0.624595 0.129215
v 0.048494 -0.627224 0.130247
v 0.031823 -0.620893 0.074523
v 0.036385 -0.551054 0.125017
v 0.027077 -0.549011 0.126444
v 0.502062 -0.715931 0.233871
v 0.045739 -0.553321 0.126453
v 0.062970 -0.621663 0.085303
v 0.494160 -0.715931 0.258192
v 0.050360 -0.551073 0.082249
v 0.491586 -0.666781 0.266116
v 0.501482 -0.666781 0.235661
v 0.491003 -0.715931 0.267907
v 0.058850 -0.553363 0.086642
v 0.051096 -0.621489 0.077793
v 0.494160 -0.666781 0.258192
v 0.498906 -0.666781 0.243585
v 0.498906 -0.715931 0.243585
v 0.356956 -0.630533 0.197463
v 0.504750 -0.715931 0.245484
v 0.358336 -0.624563 0.197911
v 0.352210 -0.630533 0.212070
v 0.500003 -0.715931 0.260091
v 0.504750 -0.661950 0.245484
v 0.353589 -0.624563 0.212518
v 0.500003 -0.661950 0.260091
vn 0.000000 1.000000 0.000000
vn 0.000000 -1.000000 0.000000
vn 0.178760 0.982175 0.058109
vn -0.178760 -0.982175 -0.058109
vn 0.061961 -0.058560 -0.996359
vn -0.061961 0.058560 0.996359
vn 0.178815 0.982166 0.058094
vn -0.178815 -0.982166 -0.058094
vn 0.140808 -0.045519 -0.988990
vn -0.140808 0.045519 0.988990
vn -0.162429 -0.051821 -0.985359
vn 0.162429 0.051821 0.985359
vn -0.327647 -0.038357 0.944021
vn 0.327647 0.038357 -0.944021
vn 0.178814 0.982166 0.058098
vn -0.178814 -0.982166 -0.058098
vn 0.289825 -0.038286 -0.956314
vn -0.289825 0.038286 0.956314
vn -0.327631 -0.038268 0.944030
vn 0.327631 0.038268 -0.944030
vn -0.951059 0.000025 -0.309009
vn 0.951059 -0.000025 0.309009
vn -0.224455 -0.971753 -0.072905
vn 0.224455 0.971753 0.072905
vn 0.289825 -0.038278 -0.956314
vn -0.289825 0.038278 0.956314
vn -0.327632 -0.038280 0.944030
vn 0.327632 0.038280 -0.944030
vn -0.224444 -0.971754 -0.072932
vn 0.224444 0.971754 0.072932
vn -0.951050 0.000003 -0.309038
vn 0.951050 -0.000003 0.309038
vn -0.534168 -0.058944 0.843321
vn 0.534168 0.058944 -0.843321
vn 0.951055 0.000000 0.309020
vn -0.951055 0.000000 -0.309020
vn 0.224449 0.971753 0.072929
vn -0.224449 -0.971753 -0.072929
vn -0.308946 0.000000 0.951080
vn 0.308946 0.000000 -0.951080
vn -0.309031 -0.000051 0.951052
vn 0.309031 0.000051 -0.951052
vn 0.224450 0.971753 0.072928
vn -0.224450 -0.971753 -0.072928
vn 0.309018 0.000000 -0.951056
vn -0.309018 0.000000 0.951056
vn 0.924176 -0.236068 0.300284
vn -0.924176 0.236068 -0.300284
vn -0.308998 0.000070 0.951063
vn 0.308998 -0.000070 -0.951063
vn 0.309031 0.000049 -0.951052
vn -0.309031 -0.000049 0.951052
vn -0.951027 0.000000 -0.309109
vn 0.951027 0.000000 0.309109
vn -0.224440 -0.971754 -0.072949
vn 0.224440 0.971754 0.072949
vn 0.309018 0.000001 -0.951056
vn -0.309018 -0.000001 0.951056
vn -0.224449 -0.971753 -0.072928
vn 0.224449 0.971753 0.072928
usemtl material-0
f 3//3 1//3 2//3
f 2//4 1//4 3//4
f 3//4 2//4 1//4
f 1//3 2//3 3//3
f 5//5 3//5 2//5
f 2//6 3//6 5//6
f 5//6 2//6 3//6
f 3//5 2//5 5//5
f 7//7 4//7 3//7
f 3//8 4//8 7//8
f 7//8 3//8 4//8
f 4//7 3//7 7//7
f 5//9 8//9 3//9
f 3//10 8//10 5//10
f 5//10 3//10 8//10
f 8//9 3//9 5//9
f 6//11 5//11 2//11
f 2//12 5//12 6//12
f 6//12 2//12 5//12
f 5//11 2//11 6//11
f 4//13 7//13 9//13
f 9//14 7//14 4//14
f 4//14 9//14 7//14
f 7//13 9//13 4//13
f 3//15 10//15 7//15
f 7//16 10//16 3//16
f 10//16 3//16 7//16
f 7//15 3//15 10//15
f 8//17 12//17 3//17
f 3//18 12//18 8//18
f 8//18 3//18 12//18
f 12//17 3//17 8//17
f 9//19 7//19 13//19
f 13//20 7//20 9//20
f 9//20 13//20 7//20
f 7//19 13//19 9//19
f 10//15 3//15 14//15
f 14//16 3//16 10//16
f 3//16 10//16 14//16
f 14//15 10//15 3//15
f 10//21 13//21 7//21
f 7//22 13//22 10//22
f 13//22 10//22 7//22
f 7//21 10//21 13//21
f 12//23 8//23 15//23
f 15//24 8//24 12//24
f 12//24 15//24 8//24
f 8//23 15//23 12//23
f 3//25 12//25 14//25
f 14//26 12//26 3//26
f 3//26 14//26 12//26
f 12//25 14//25 3//25
f 15//27 9//27 13//27
f 13//28 9//28 15//28
f 15//28 13//28 9//28
f 9//27 13//27 15//27
f 13//21 10//21 14//21
f 14//22 10//22 13//22
f 10//22 13//22 14//22
f 14//21 13//21 10//21
f 15//29 17//29 12//29
f 12//30 17//30 15//30
f 17//30 15//30 12//30
f 12//29 15//29 17//29
f 12//31 13//31 14//31
f 14//32 13//32 12//32
f 13//32 12//32 14//32
f 14//31 12//31 13//31
f 18//29 15//29 13//29
f 13//30 15//30 18//30
f 15//30 18//30 13//30
f 13//29 18//29 15//29
f 11//33 16//33 9//33
f 9//34 16//34 11//34
f 11//34 9//34 16//34
f 16//33 9//33 11//33
f 17//29 15//29 18//29
f 18//30 15//30 17//30
f 18//30 15//30 17//30
f 17//29 15//29 18//29
f 13//31 12//31 17//31
f 17//32 12//32 13//32
f 12//32 13//32 17//32
f 17//31 13//31 12//31
f 13//31 17//31 18//31
f 18//32 17//32 13//32
f 17//32 13//32 18//32
f 18//31 13//31 17//31
f 18//35 17//35 19//35
f 19//36 17//36 18//36
f 19//36 17//36 18//36
f 18//35 17//35 19//35
f 18//37 20//37 17//37
f 17//38 20//38 18//38
f 18//38 17//38 20//38
f 20//37 17//37 18//37
f 19//35 17//35 10//35
f 10//36 17//36 19//36
f 19//36 10//36 17//36
f 17//35 10//35 19//35
f 18//39 19//39 21//39
f 21//40 19//40 18//40
f 18//40 21//40 19//40
f 19//39 21//39 18//39
f 22//41 20//41 18//41
f 18//42 20//42 22//42
f 22//42 18//42 20//42
f 20//41 18//41 22//41
f 17//43 20//43 23//43
f 23//44 20//44 17//44
f 17//44 23//44 20//44
f 20//43 23//43 17//43
f 17//45 24//45 10//45
f 10//46 24//46 17//46
f 17//46 10//46 24//46
f 24//45 10//45 17//45
f 24//1 19//1 10//1
f 10//2 19//2 24//2
f 24//2 10//2 19//2
f 19//1 10//1 24//1
f 21//1 19//1 24//1
f 24//2 19//2 21//2
f 21//2 24//2 19//2
f 19//1 24//1 21//1
f 25//39 18//39 21//39
f 21//40 18//40 25//40
f 25//40 21//40 18//40
f 18//39 21//39 25//39
f 20//47 22//47 23//47
f 23//48 22//48 20//48
f 20//48 23//48 22//48
f 22//47 23//47 20//47
f 22//49 18//49 25//49
f 25//50 18//50 22//50
f 22//50 25//50 18//50
f 18//49 25//49 22//49
f 26//51 17//51 23//51
f 23//52 17//52 26//52
f 26//52 23//52 17//52
f 17//51 23//51 26//51
f 27//45 24//45 17//45
f 17//46 24//46 27//46
f 27//46 17//46 24//46
f 24//45 17//45 27//45
f 21//53 24//53 25//53
f 25//54 24//54 21//54
f 25//54 24//54 21//54
f 21//53 24//53 25//53
f 22//47 26//47 23//47
f 23//48 26//48 22//48
f 22//48 23//48 26//48
f 26//47 23//47 22//47
f 25//55 27//55 22//55
f 22//56 27//56 25//56
f 25//56 22//56 27//56
f 27//55 22//55 25//55
f 26//57 27//57 17//57
f 17//58 27//58 26//58
f 26//58 17//58 27//58
f 27//57 17//57 26//57
f 25//53 24//53 27//53
f 27//54 24//54 25//54
f 25//54 27//54 24//54
f 24//53 27//53 25//53
f 27//59 26//59 22//59
f 22//60 26//60 27//60
f 27//60 22//60 26//60
f 26//59 22//59 27//59