mtllib new-2.mtl
v -0.067260 -0.549014 0.057763
v -0.071965 -0.621489 0.051546
v -0.058295 -0.620893 0.065520
v -0.068751 -0.551073 0.048373
v -0.032305 -0.551054 0.021988
v -0.077158 -0.621663 0.038492
v -0.039029 -0.627224 0.010639
v -0.039029 -0.553321 0.015328
v -0.073037 -0.553363 0.039831
v -0.345065 -0.715931 -0.339795
v -0.343541 -0.666781 -0.340901
v -0.336801 -0.715931 -0.345799
v -0.317636 -0.666781 -0.359724
v -0.324376 -0.666781 -0.354827
v -0.324376 -0.715931 -0.354827
v -0.316112 -0.715931 -0.360830
v -0.327987 -0.715931 -0.359798
v -0.340412 -0.715931 -0.350769
v -0.336801 -0.666781 -0.345799
v -0.327987 -0.661950 -0.359798
v -0.340412 -0.661950 -0.350769
v -0.249072 -0.630533 -0.225049
v -0.237498 -0.624563 -0.235250
v -0.236646 -0.630533 -0.234077
v -0.249924 -0.624563 -0.226222
vn 0.000000 1.000000 0.000000
vn 0.000000 -1.000000 0.000000
vn 0.987996 -0.051644 -0.145591
vn -0.987996 0.051644 0.145591
vn 0.927830 -0.058936 -0.368318
vn -0.927830 0.058936 0.368318
vn 0.138633 -0.971786 0.190823
vn -0.138633 0.971786 -0.190823
vn 0.897731 -0.045573 -0.438180
vn -0.897731 0.045573 0.438180
vn -0.110519 0.982166 -0.152102
vn 0.110519 -0.982166 0.152102
vn -0.695172 -0.045520 0.717401
vn 0.695172 0.045520 -0.717401
vn 0.819947 -0.038272 -0.571159
vn -0.819947 0.038272 0.571159
vn 0.819949 -0.038292 -0.571155
vn -0.819949 0.038292 0.571155
vn -0.110511 0.982166 -0.152109
vn 0.110511 -0.982166 0.152109
vn 0.138739 -0.971754 0.190910
vn -0.138739 0.971754 -0.190910
vn -0.796581 -0.038281 0.603318
vn 0.796581 0.038281 -0.603318
vn 0.138724 -0.971754 0.190919
vn -0.138724 0.971754 -0.190919
vn 0.819947 -0.038269 -0.571159
vn -0.819947 0.038269 0.571159
vn 0.587776 -0.000018 0.809024
vn -0.587776 0.000018 -0.809024
vn -0.796582 -0.038269 0.603318
vn 0.796582 0.038269 -0.603318
vn 0.587821 0.000020 0.808991
vn -0.587821 -0.000020 -0.808991
vn -0.587803 0.000000 -0.809004
vn 0.587803 0.000000 0.809004
vn -0.809027 0.000000 0.587771
vn 0.809027 0.000000 -0.587771
vn -0.138721 0.971753 -0.190924
vn 0.138721 -0.971753 0.190924
vn -0.809022 0.000012 0.587779
vn 0.809022 -0.000012 -0.587779
vn 0.809022 -0.000015 -0.587778
vn -0.809022 0.000015 0.587778
vn 0.809022 -0.000013 -0.587779
vn -0.809022 0.000013 0.587779
vn -0.571189 -0.236075 -0.786138
vn 0.571189 0.236075 0.786138
vn -0.571190 -0.236073 -0.786137
vn 0.571190 0.236073 0.786137
usemtl material-0
f 4//3 1//3 2//3
f 2//4 1//4 4//4
f 4//4 2//4 1//4
f 1//3 2//3 4//3
f 6//5 4//5 2//5
f 2//6 4//6 6//6
f 6//6 2//6 4//6
f 4//5 2//5 6//5
f 5//7 4//7 8//7
f 8//8 4//8 5//8
f 5//8 8//8 4//8
f 4//7 8//7 5//7
f 6//9 9//9 4//9
f 4//10 9//10 6//10
f 6//10 4//10 9//10
f 9//9 4//9 6//9
f 7//11 10//11 3//11
f 3//12 10//12 7//12
f 7//12 3//12 10//12
f 10//11 3//11 7//11
f 5//13 8//13 7//13
f 7//14 8//14 5//14
f 5//14 7//14 8//14
f 8//13 7//13 5//13
f 11//15 9//15 6//15
f 6//16 9//16 11//16
f 11//16 6//16 9//16
f 9//15 6//15 11//15
f 10//17 6//17 3//17
f 3//18 6//18 10//18
f 10//18 3//18 6//18
f 6//17 3//17 10//17
f 7//19 12//19 10//19
f 10//20 12//20 7//20
f 12//20 7//20 10//20
f 10//19 7//19 12//19
f 8//21 9//21 13//21
f 13//22 9//22 8//22
f 8//22 13//22 9//22
f 9//21 13//21 8//21
f 13//23 7//23 8//23
f 8//24 7//24 13//24
f 13//24 8//24 7//24
f 7//23 8//23 13//23
f 14//25 9//25 11//25
f 11//26 9//26 14//26
f 9//26 14//26 11//26
f 11//25 14//25 9//25
f 11//27 6//27 10//27
f 10//28 6//28 11//28
f 11//28 10//28 6//28
f 6//27 10//27 11//27
f 12//19 7//19 15//19
f 15//20 7//20 12//20
f 7//20 12//20 15//20
f 15//19 12//19 7//19
f 12//29 11//29 10//29
f 10//30 11//30 12//30
f 11//30 12//30 10//30
f 10//29 12//29 11//29
f 9//25 14//25 13//25
f 13//26 14//26 9//26
f 14//26 9//26 13//26
f 13//25 9//25 14//25
f 16//31 7//31 13//31
f 13//32 7//32 16//32
f 16//32 13//32 7//32
f 7//31 13//31 16//31
f 11//33 13//33 14//33
f 14//34 13//34 11//34
f 13//34 11//34 14//34
f 14//33 11//33 13//33
f 15//19 7//19 16//19
f 16//20 7//20 15//20
f 7//20 15//20 16//20
f 16//19 15//19 7//19
f 15//1 17//1 12//1
f 12//2 17//2 15//2
f 15//2 12//2 17//2
f 17//1 12//1 15//1
f 14//35 15//35 12//35
f 12//36 15//36 14//36
f 14//36 12//36 15//36
f 15//35 12//35 14//35
f 15//29 11//29 12//29
f 12//30 11//30 15//30
f 12//30 11//30 15//30
f 15//29 11//29 12//29
f 13//33 11//33 16//33
f 16//34 11//34 13//34
f 11//34 13//34 16//34
f 16//33 13//33 11//33
f 11//29 15//29 16//29
f 16//30 15//30 11//30
f 15//30 11//30 16//30
f 16//29 11//29 15//29
f 17//37 15//37 14//37
f 14//38 15//38 17//38
f 17//38 14//38 15//38
f 15//37 14//37 17//37
f 17//1 18//1 12//1
f 12//2 18//2 17//2
f 17//2 12//2 18//2
f 18//1 12//1 17//1
f 14//35 12//35 19//35
f 19//36 12//36 14//36
f 19//36 12//36 14//36
f 14//35 12//35 19//35
f 17//37 14//37 20//37
f 20//38 14//38 17//38
f 20//38 14//38 17//38
f 17//37 14//37 20//37
f 21//36 18//36 17//36
f 17//35 18//35 21//35
f 21//35 17//35 18//35
f 18//36 17//36 21//36
f 18//38 19//38 12//38
f 12//37 19//37 18//37
f 18//37 12//37 19//37
f 19//38 12//38 18//38
f 22//39 14//39 19//39
f 19//40 14//40 22//40
f 22//40 19//40 14//40
f 14//39 19//39 22//39
f 20//41 14//41 23//41
f 23//42 14//42 20//42
f 20//42 23//42 14//42
f 14//41 23//41 20//41
f 21//36 17//36 20//36
f 20//35 17//35 21//35
f 20//35 17//35 21//35
f 21//36 17//36 20//36
f 21//38 19//38 18//38
f 18//37 19//37 21//37
f 18//37 19//37 21//37
f 21//38 19//38 18//38
f 24//39 14//39 22//39
f 22//40 14//40 24//40
f 24//40 22//40 14//40
f 14//39 22//39 24//39
f 19//43 25//43 22//43
f 22//44 25//44 19//44
f 19//44 22//44 25//44
f 25//43 22//43 19//43
f 14//41 24//41 23//41
f 23//42 24//42 14//42
f 14//42 23//42 24//42
f 24//41 23//41 14//41
f 23//40 21//40 20//40
f 20//39 21//39 23//39
f 23//39 20//39 21//39
f 21//40 20//40 23//40
f 21//45 25//45 19//45
f 19//46 25//46 21//46
f 21//46 19//46 25//46
f 25//45 19//45 21//45
f 23//47 24//47 22//47
f 22//48 24//48 23//48
f 23//48 22//48 24//48
f 24//47 22//47 23//47
f 23//49 22//49 25//49
f 25//50 22//50 23//50
f 25//50 22//50 23//50
f 23//49 22//49 25//49
f 23//40 25//40 21//40
f 21//39 25//39 23//39
f 23//39 21//39 25//39
f 25//40 21//40 23//40