mtllib new-3.mtl
v -0.528372 -0.715931 0.243373
v -0.534217 -0.715931 0.245272
v -0.529469 -0.715931 0.259879
v -0.528372 -0.666781 0.243373
v -0.529469 -0.661950 0.259879
v -0.523626 -0.715931 0.257980
v -0.534217 -0.661950 0.245272
v -0.523626 -0.666781 0.257980
v -0.092617 -0.627224 0.084928
v -0.531529 -0.715931 0.233659
v -0.387802 -0.624563 0.197698
v -0.383056 -0.624563 0.212306
v -0.520470 -0.715931 0.267695
v -0.521052 -0.666781 0.265904
v -0.386423 -0.630533 0.197251
v -0.075364 -0.553363 0.126291
v -0.381677 -0.630533 0.211858
v -0.530947 -0.666781 0.235450
v -0.046377 -0.620893 0.120210
v -0.088158 -0.553321 0.086376
v -0.077910 -0.621663 0.129797
v -0.058103 -0.622083 0.104236
v -0.079746 -0.551054 0.082040
v -0.080593 -0.624595 0.077468
v -0.065916 -0.551073 0.124854
v -0.062313 -0.621704 0.084874
v -0.063890 -0.621489 0.128891
v -0.056524 -0.549014 0.126338
vn 0.000000 1.000000 0.000000
vn 0.000000 -1.000000 0.000000
vn 0.308946 0.000000 0.951080
vn -0.308946 0.000000 -0.951080
vn 0.951027 0.000000 -0.309109
vn -0.951027 0.000000 0.309109
vn -0.951055 0.000000 0.309020
vn 0.951055 0.000000 -0.309020
vn -0.309018 0.000000 -0.951056
vn 0.309018 0.000000 0.951056
vn -0.178814 0.982166 0.058098
vn 0.178814 -0.982166 -0.058098
vn 0.951059 0.000004 -0.309009
vn -0.951059 -0.000004 0.309009
vn 0.309005 0.000079 0.951060
vn -0.309005 -0.000079 -0.951060
vn 0.224439 -0.971754 -0.072949
vn -0.224439 0.971754 0.072949
vn -0.309018 0.000001 -0.951056
vn 0.309018 -0.000001 0.951056
vn 0.308977 0.000181 0.951069
vn -0.308977 -0.000181 -0.951069
vn -0.224449 0.971753 0.072929
vn 0.224449 -0.971753 -0.072929
vn 0.951064 -0.000005 -0.308995
vn -0.951064 0.000005 0.308995
vn 0.224447 -0.971754 -0.072922
vn -0.224447 0.971754 0.072922
vn 0.224451 -0.971753 -0.072922
vn -0.224451 0.971753 0.072922
vn -0.309031 0.000051 -0.951052
vn 0.309031 -0.000051 0.951052
vn 0.327632 -0.038278 0.944030
vn -0.327632 0.038278 -0.944030
vn -0.178812 0.982166 0.058101
vn 0.178812 -0.982166 -0.058101
vn -0.924202 -0.235995 0.300262
vn 0.924202 0.235995 -0.300262
vn -0.224450 0.971753 0.072928
vn 0.224450 -0.971753 -0.072928
vn -0.924177 -0.236064 0.300284
vn 0.924177 0.236064 -0.300284
vn 0.327632 -0.038269 0.944030
vn -0.327632 0.038269 -0.944030
vn -0.289826 -0.038278 -0.956314
vn 0.289826 0.038278 0.956314
vn -0.289826 -0.038274 -0.956314
vn 0.289826 0.038274 0.956314
vn 0.224440 -0.971753 -0.072953
vn -0.224440 0.971753 0.072953
vn -0.289824 -0.038291 -0.956314
vn 0.289824 0.038291 0.956314
vn 0.467337 -0.045500 0.882908
vn -0.467337 0.045500 -0.882908
vn -0.178777 0.982175 0.058066
vn 0.178777 -0.982175 -0.058066
vn 0.224460 -0.971748 -0.072959
vn -0.224460 0.971748 0.072959
vn -0.139314 -0.045591 -0.989198
vn 0.139314 0.045591 0.989198
vn 0.535536 -0.058556 0.842480
vn -0.535536 0.058556 -0.842480
vn -0.178856 0.982156 0.058134
vn 0.178856 -0.982156 -0.058134
vn 0.166860 -0.051641 -0.984627
vn -0.166860 0.051641 0.984627
usemtl material-0
f 1//1 2//1 3//1
f 3//2 2//2 1//2
f 1//2 3//2 2//2
f 2//1 3//1 1//1
f 4//3 2//3 1//3
f 1//4 2//4 4//4
f 4//4 1//4 2//4
f 2//3 1//3 4//3
f 2//5 5//5 3//5
f 3//6 5//6 2//6
f 2//6 3//6 5//6
f 5//5 3//5 2//5
f 6//1 1//1 3//1
f 3//2 1//2 6//2
f 6//2 3//2 1//2
f 1//1 3//1 6//1
f 7//3 2//3 4//3
f 4//4 2//4 7//4
f 7//4 4//4 2//4
f 2//3 4//3 7//3
f 1//7 6//7 4//7
f 4//8 6//8 1//8
f 4//8 6//8 1//8
f 1//7 6//7 4//7
f 7//5 5//5 2//5
f 2//6 5//6 7//6
f 2//6 5//6 7//6
f 7//5 5//5 2//5
f 5//9 8//9 3//9
f 3//10 8//10 5//10
f 5//10 3//10 8//10
f 8//9 3//9 5//9
f 9//11 1//11 6//11
f 6//12 1//12 9//12
f 1//12 9//12 6//12
f 6//11 9//11 1//11
f 10//13 6//13 1//13
f 1//14 6//14 10//14
f 6//14 10//14 1//14
f 1//13 10//13 6//13
f 8//9 6//9 3//9
f 3//10 6//10 8//10
f 8//10 3//10 6//10
f 6//9 3//9 8//9
f 11//15 7//15 4//15
f 4//16 7//16 11//16
f 11//16 4//16 7//16
f 7//15 4//15 11//15
f 4//7 6//7 8//7
f 8//8 6//8 4//8
f 4//8 8//8 6//8
f 6//7 8//7 4//7
f 11//17 5//17 7//17
f 7//18 5//18 11//18
f 11//18 7//18 5//18
f 5//17 7//17 11//17
f 12//19 8//19 5//19
f 5//20 8//20 12//20
f 12//20 5//20 8//20
f 8//19 5//19 12//19
f 1//11 9//11 10//11
f 10//12 9//12 1//12
f 9//12 1//12 10//12
f 10//11 1//11 9//11
f 9//11 6//11 13//11
f 13//12 6//12 9//12
f 6//12 9//12 13//12
f 13//11 9//11 6//11
f 14//13 6//13 10//13
f 10//14 6//14 14//14
f 6//14 14//14 10//14
f 10//13 14//13 6//13
f 11//21 4//21 15//21
f 15//22 4//22 11//22
f 11//22 15//22 4//22
f 4//21 15//21 11//21
f 15//23 4//23 8//23
f 8//24 4//24 15//24
f 15//24 8//24 4//24
f 4//23 8//23 15//23
f 8//25 10//25 4//25
f 4//26 10//26 8//26
f 10//26 8//26 4//26
f 4//25 8//25 10//25
f 4//27 16//27 8//27
f 8//28 16//28 4//28
f 16//28 4//28 8//28
f 8//27 4//27 16//27
f 12//29 5//29 11//29
f 11//30 5//30 12//30
f 12//30 11//30 5//30
f 5//29 11//29 12//29
f 12//31 17//31 8//31
f 8//32 17//32 12//32
f 12//32 8//32 17//32
f 17//31 8//31 12//31
f 9//33 18//33 10//33
f 10//34 18//34 9//34
f 9//34 10//34 18//34
f 18//33 10//33 9//33
f 6//13 14//13 13//13
f 13//14 14//14 6//14
f 14//14 6//14 13//14
f 13//13 6//13 14//13
f 19//35 9//35 13//35
f 13//36 9//36 19//36
f 19//36 13//36 9//36
f 9//35 13//35 19//35
f 10//25 8//25 14//25
f 14//26 8//26 10//26
f 8//26 10//26 14//26
f 14//25 10//25 8//25
f 15//37 12//37 11//37
f 11//38 12//38 15//38
f 15//38 11//38 12//38
f 12//37 11//37 15//37
f 17//39 15//39 8//39
f 8//40 15//40 17//40
f 17//40 8//40 15//40
f 15//39 8//39 17//39
f 4//25 10//25 18//25
f 18//26 10//26 4//26
f 10//26 4//26 18//26
f 18//25 4//25 10//25
f 16//27 4//27 18//27
f 18//28 4//28 16//28
f 4//28 16//28 18//28
f 18//27 16//27 4//27
f 8//27 16//27 14//27
f 14//28 16//28 8//28
f 16//28 8//28 14//28
f 14//27 8//27 16//27
f 15//41 17//41 12//41
f 12//42 17//42 15//42
f 15//42 12//42 17//42
f 17//41 12//41 15//41
f 20//43 18//43 9//43
f 9//44 18//44 20//44
f 20//44 9//44 18//44
f 18//43 9//43 20//43
f 21//45 13//45 14//45
f 14//46 13//46 21//46
f 21//46 14//46 13//46
f 13//45 14//45 21//45
f 19//47 13//47 21//47
f 21//48 13//48 19//48
f 19//48 21//48 13//48
f 13//47 21//47 19//47
f 16//49 18//49 20//49
f 20//50 18//50 16//50
f 16//50 20//50 18//50
f 18//49 20//49 16//49
f 16//51 21//51 14//51
f 14//52 21//52 16//52
f 16//52 14//52 21//52
f 21//51 14//51 16//51
f 23//53 20//53 9//53
f 9//54 20//54 23//54
f 23//54 9//54 20//54
f 20//53 9//53 23//53
f 22//55 24//55 9//55
f 9//56 24//56 22//56
f 22//56 9//56 24//56
f 24//55 9//55 22//55
f 25//57 16//57 20//57
f 20//58 16//58 25//58
f 25//58 20//58 16//58
f 16//57 20//57 25//57
f 25//59 21//59 16//59
f 16//60 21//60 25//60
f 25//60 16//60 21//60
f 21//59 16//59 25//59
f 23//61 9//61 24//61
f 24//62 9//62 23//62
f 23//62 24//62 9//62
f 9//61 24//61 23//61
f 22//63 26//63 24//63
f 24//64 26//64 22//64
f 22//64 24//64 26//64
f 26//63 24//63 22//63
f 28//65 27//65 25//65
f 25//66 27//66 28//66
f 28//66 25//66 27//66
f 27//65 25//65 28//65