mtllib new-1.mtl
v 0.043635 -0.549014 0.075529
v 0.039306 -0.547383 0.067114
v 0.037947 -0.549011 0.057843
v 0.043885 -0.622540 0.065775
v -0.005359 -0.549014 0.026361
v 0.009912 -0.621663 0.010992
v 0.042841 -0.624595 0.051750
v 0.039466 -0.551054 0.048549
v 0.003112 -0.551073 0.022040
v 0.009912 -0.553363 0.015325
v 0.048182 -0.627224 0.038649
v 0.043724 -0.553321 0.040097
v 0.288418 -0.666781 -0.359592
v 0.314325 -0.666781 -0.340771
v 0.286895 -0.715931 -0.360699
v -0.009965 -0.620893 0.037285
v 0.307585 -0.666781 -0.345667
v 0.295159 -0.666781 -0.354695
v 0.315848 -0.715931 -0.339665
v 0.307585 -0.715931 -0.345667
v 0.295159 -0.715931 -0.354695
v 0.207428 -0.630533 -0.233946
v 0.298770 -0.715931 -0.359666
v 0.208281 -0.624563 -0.235118
v 0.219854 -0.630533 -0.224918
v 0.311196 -0.715931 -0.350637
v 0.298770 -0.661950 -0.359666
v 0.220706 -0.624563 -0.226091
v 0.311196 -0.661950 -0.350637
vn 0.000000 1.000000 0.000000
vn 0.000000 -1.000000 0.000000
vn -0.892406 -0.062331 0.446907
vn 0.892406 0.062331 -0.446907
vn -0.985824 -0.062830 0.155575
vn 0.985824 0.062830 -0.155575
vn -0.993885 -0.071154 0.084443
vn 0.993885 0.071154 -0.084443
vn -0.138723 -0.971754 0.190917
vn 0.138723 0.971754 -0.190917
vn -0.987329 -0.051832 -0.149980
vn 0.987329 0.051832 0.149980
vn -0.928451 -0.058568 -0.366809
vn 0.928451 0.058568 0.366809
vn -0.138643 -0.971787 0.190810
vn 0.138643 0.971787 -0.190810
vn 0.796582 -0.038274 0.603318
vn -0.796582 0.038274 -0.603318
vn -0.138703 -0.971751 0.190951
vn 0.138703 0.971751 -0.190951
vn -0.897018 -0.045504 -0.439646
vn 0.897018 0.045504 0.439646
vn -0.138711 -0.971754 0.190929
vn 0.138711 0.971754 -0.190929
vn 0.796581 -0.038288 0.603319
vn -0.796581 0.038288 -0.603319
vn -0.138696 -0.971754 0.190941
vn 0.138696 0.971754 -0.190941
vn -0.819947 -0.038276 -0.571159
vn 0.819947 0.038276 0.571159
vn -0.587766 -0.000008 0.809031
vn 0.587766 0.000008 -0.809031
vn 0.796576 -0.038320 0.603323
vn -0.796576 0.038320 -0.603323
vn 0.110507 0.982166 -0.152111
vn -0.110507 -0.982166 0.152111
vn -0.819947 -0.038269 -0.571159
vn 0.819947 0.038269 0.571159
vn -0.587755 -0.000017 0.809039
vn 0.587755 0.000017 -0.809039
vn 0.587803 0.000000 -0.809004
vn -0.587803 0.000000 0.809004
vn 0.138721 0.971753 -0.190925
vn -0.138721 -0.971753 0.190925
vn 0.809030 0.000000 0.587767
vn -0.809030 0.000000 -0.587767
vn 0.808994 -0.000124 0.587817
vn -0.808994 0.000124 -0.587817
vn 0.809019 0.000024 0.587783
vn -0.809019 -0.000024 -0.587783
vn 0.571152 -0.235882 -0.786222
vn -0.571152 0.235882 0.786222
vn 0.571188 -0.236075 -0.786138
vn -0.571188 0.236075 0.786138
vn -0.809014 -0.000021 -0.587789
vn 0.809014 0.000021 0.587789
vn -0.138720 -0.971754 0.190923
vn 0.138720 0.971754 -0.190923
vn -0.138705 -0.971753 0.190936
vn 0.138705 0.971753 -0.190936
vn -0.809016 -0.000030 -0.587787
vn 0.809016 0.000030 0.587787
usemtl material-0
f 4//3 1//3 2//3
f 2//4 1//4 4//4
f 4//4 2//4 1//4
f 1//3 2//3 4//3
f 3//5 4//5 2//5
f 2//6 4//6 3//6
f 3//6 2//6 4//6
f 4//5 2//5 3//5
f 7//7 4//7 3//7
f 3//8 4//8 7//8
f 7//8 3//8 4//8
f 4//7 3//7 7//7
f 8//9 3//9 5//9
f 5//10 3//10 8//10
f 8//10 5//10 3//10
f 3//9 5//9 8//9
f 8//11 7//11 3//11
f 3//12 7//12 8//12
f 8//12 3//12 7//12
f 7//11 3//11 8//11
f 11//13 7//13 8//13
f 8//14 7//14 11//14
f 11//14 8//14 7//14
f 7//13 8//13 11//13
f 12//15 8//15 9//15
f 9//16 8//16 12//16
f 12//16 9//16 8//16
f 8//15 9//15 12//15
f 13//17 10//17 6//17
f 6//18 10//18 13//18
f 13//18 6//18 10//18
f 10//17 6//17 13//17
f 12//19 9//19 10//19
f 10//20 9//20 12//20
f 12//20 10//20 9//20
f 9//19 10//19 12//19
f 11//21 8//21 12//21
f 12//22 8//22 11//22
f 11//22 12//22 8//22
f 8//21 12//21 11//21
f 13//23 14//23 10//23
f 10//24 14//24 13//24
f 14//24 13//24 10//24
f 10//23 13//23 14//23
f 15//25 13//25 6//25
f 6//26 13//26 15//26
f 15//26 6//26 13//26
f 13//25 6//25 15//25
f 14//27 12//27 10//27
f 10//28 12//28 14//28
f 14//28 10//28 12//28
f 12//27 10//27 14//27
f 14//29 11//29 12//29
f 12//30 11//30 14//30
f 14//30 12//30 11//30
f 11//29 12//29 14//29
f 14//31 13//31 15//31
f 13//31 14//31 17//31
f 15//32 13//32 14//32
f 17//32 14//32 13//32
f 13//32 14//32 15//32
f 14//32 13//32 18//32
f 15//31 14//31 13//31
f 18//31 13//31 14//31
f 14//23 13//23 17//23
f 17//24 13//24 14//24
f 13//24 14//24 17//24
f 17//23 14//23 13//23
f 15//33 6//33 16//33
f 16//34 6//34 15//34
f 15//34 16//34 6//34
f 6//33 16//33 15//33
f 15//35 16//35 11//35
f 11//36 16//36 15//36
f 15//36 11//36 16//36
f 16//35 11//35 15//35
f 14//37 19//37 11//37
f 11//38 19//38 14//38
f 14//38 11//38 19//38
f 19//37 11//37 14//37
f 20//39 14//39 15//39
f 15//40 14//40 20//40
f 14//40 20//40 15//40
f 15//39 20//39 14//39
f 14//32 18//32 17//32
f 17//31 18//31 14//31
f 13//31 17//31 18//31
f 18//32 17//32 13//32
f 17//23 13//23 18//23
f 18//24 13//24 17//24
f 13//24 17//24 18//24
f 18//23 17//23 13//23
f 11//35 20//35 15//35
f 15//36 20//36 11//36
f 20//36 11//36 15//36
f 15//35 11//35 20//35
f 14//39 20//39 19//39
f 19//40 20//40 14//40
f 20//40 14//40 19//40
f 19//39 14//39 20//39
f 20//35 11//35 19//35
f 19//36 11//36 20//36
f 11//36 20//36 19//36
f 19//35 20//35 11//35
f 17//41 21//41 18//41
f 18//42 21//42 17//42
f 18//42 21//42 17//42
f 17//41 21//41 18//41
f 17//43 18//43 22//43
f 22//44 18//44 17//44
f 17//44 22//44 18//44
f 18//43 22//43 17//43
f 17//41 20//41 21//41
f 21//42 20//42 17//42
f 17//42 21//42 20//42
f 20//41 21//41 17//41
f 23//45 18//45 21//45
f 21//46 18//46 23//46
f 23//46 21//46 18//46
f 18//45 21//45 23//45
f 18//47 24//47 22//47
f 22//48 24//48 18//48
f 18//48 22//48 24//48
f 24//47 22//47 18//47
f 17//43 22//43 25//43
f 25//44 22//44 17//44
f 17//44 25//44 22//44
f 22//43 25//43 17//43
f 26//46 20//46 17//46
f 17//45 20//45 26//45
f 26//45 17//45 20//45
f 20//46 17//46 26//46
f 26//1 21//1 20//1
f 20//2 21//2 26//2
f 26//2 20//2 21//2
f 21//1 20//1 26//1
f 27//45 18//45 23//45
f 23//46 18//46 27//46
f 23//46 18//46 27//46
f 27//45 18//45 23//45
f 26//1 23//1 21//1
f 21//2 23//2 26//2
f 26//2 21//2 23//2
f 23//1 21//1 26//1
f 27//49 24//49 18//49
f 18//50 24//50 27//50
f 27//50 18//50 24//50
f 24//49 18//49 27//49
f 28//51 22//51 24//51
f 24//52 22//52 28//52
f 24//52 22//52 28//52
f 28//51 22//51 24//51
f 28//53 25//53 22//53
f 22//54 25//54 28//54
f 28//54 22//54 25//54
f 25//53 22//53 28//53
f 17//55 25//55 28//55
f 28//56 25//56 17//56
f 17//56 28//56 25//56
f 25//55 28//55 17//55
f 26//46 17//46 29//46
f 29//45 17//45 26//45
f 29//45 17//45 26//45
f 26//46 17//46 29//46
f 27//42 23//42 26//42
f 26//41 23//41 27//41
f 27//41 26//41 23//41
f 23//42 26//42 27//42
f 29//57 24//57 27//57
f 27//58 24//58 29//58
f 29//58 27//58 24//58
f 24//57 27//57 29//57
f 29//59 28//59 24//59
f 24//60 28//60 29//60
f 29//60 24//60 28//60
f 28//59 24//59 29//59
f 29//61 17//61 28//61
f 28//62 17//62 29//62
f 29//62 28//62 17//62
f 17//61 28//61 29//61
f 27//42 26//42 29//42
f 29//41 26//41 27//41
f 29//41 26//41 27//41
f 27//42 26//42 29//42