# SSTK version 0.8.0
# 22
mtllib original-22.mtl
o mesh22/mesh22-geometry#mesh22-geometry
v 0.275286 -0.778136 -0.329580
v 0.253783 -0.798103 -0.334929
v 0.253783 -0.778136 -0.329580
v 0.275286 -0.798103 -0.334929
v 0.253783 -0.778136 -0.409448
v 0.275286 -0.758169 -0.334929
v 0.275286 -0.812721 -0.389481
v 0.253783 -0.812721 -0.349547
v 0.253783 -0.758169 -0.404099
v 0.253783 -0.798103 -0.404099
v 0.275286 -0.778136 -0.409448
v 0.253783 -0.758169 -0.334929
v 0.275286 -0.818070 -0.369514
v 0.275286 -0.798103 -0.404099
v 0.275286 -0.812721 -0.349547
v 0.253783 -0.812721 -0.389481
v 0.275286 -0.758169 -0.404099
v 0.275286 -0.743551 -0.349547
v 0.253783 -0.818070 -0.369514
v 0.253783 -0.743551 -0.389481
v 0.275286 -0.743551 -0.389481
v 0.253783 -0.743551 -0.349547
v 0.275286 -0.738202 -0.369514
v 0.253783 -0.738202 -0.369514
vn 0 0.2587950672027474 -0.9659322508289727
vn 0 -0.2587950672027474 0.9659322508289727
vn 1 0 0
vn -1 0 0
vn 0 -0.2587950672027469 -0.9659322508289727
vn 0 0.2587950672027469 0.9659322508289727
vn 0 0.7071072811865697 -0.7071062811861718
vn 0 -0.7071072811865697 0.7071062811861718
vn 0 -0.7071072811865695 -0.707106281186172
vn 0 0.7071072811865695 0.707106281186172
vn 0 0.9659320008500202 0.25879600022774074
vn 0 -0.9659320008500202 -0.25879600022774074
vn 0 0.9659322508289727 -0.2587950672027469
vn 0 -0.9659322508289727 0.2587950672027469
vn 0 -0.9659322508289727 -0.2587950672027474
vn 0 0.9659322508289727 0.2587950672027474
vn 0 -0.9659320008500204 0.2587960002277403
vn 0 0.9659320008500204 -0.2587960002277403
usemtl material_0_0
f 1//1 2//1 3//1
f 3//2 2//2 1//2
f 3//2 2//2 1//2
f 1//1 2//1 3//1
f 1//1 4//1 2//1
f 2//2 4//2 1//2
f 1//2 2//2 4//2
f 4//1 2//1 1//1
f 5//3 3//3 2//3
f 2//4 3//4 5//4
f 5//4 2//4 3//4
f 3//3 2//3 5//3
f 6//5 1//5 3//5
f 3//6 1//6 6//6
f 6//6 3//6 1//6
f 1//5 3//5 6//5
f 7//4 4//4 1//4
f 1//3 4//3 7//3
f 7//3 1//3 4//3
f 4//4 1//4 7//4
f 4//7 8//7 2//7
f 2//8 8//8 4//8
f 4//8 2//8 8//8
f 8//7 2//7 4//7
f 5//3 9//3 3//3
f 3//4 9//4 5//4
f 5//4 3//4 9//4
f 9//3 3//3 5//3
f 5//3 2//3 10//3
f 10//4 2//4 5//4
f 5//4 10//4 2//4
f 2//3 10//3 5//3
f 11//4 1//4 6//4
f 6//3 1//3 11//3
f 11//3 6//3 1//3
f 1//4 6//4 11//4
f 6//5 3//5 12//5
f 12//6 3//6 6//6
f 12//6 3//6 6//6
f 6//5 3//5 12//5
f 7//4 13//4 4//4
f 4//3 13//3 7//3
f 7//3 4//3 13//3
f 13//4 4//4 7//4
f 14//4 7//4 1//4
f 1//3 7//3 14//3
f 14//3 1//3 7//3
f 7//4 1//4 14//4
f 15//7 8//7 4//7
f 4//8 8//8 15//8
f 4//8 8//8 15//8
f 15//7 8//7 4//7
f 16//3 2//3 8//3
f 8//4 2//4 16//4
f 16//4 8//4 2//4
f 2//3 8//3 16//3
f 9//2 5//2 17//2
f 17//1 5//1 9//1
f 17//1 5//1 9//1
f 9//2 5//2 17//2
f 9//3 12//3 3//3
f 3//4 12//4 9//4
f 9//4 3//4 12//4
f 12//3 3//3 9//3
f 10//3 2//3 16//3
f 16//4 2//4 10//4
f 10//4 16//4 2//4
f 2//3 16//3 10//3
f 5//6 10//6 11//6
f 11//5 10//5 5//5
f 11//5 10//5 5//5
f 5//6 10//6 11//6
f 11//4 14//4 1//4
f 1//3 14//3 11//3
f 11//3 1//3 14//3
f 14//4 1//4 11//4
f 11//4 6//4 17//4
f 17//3 6//3 11//3
f 11//3 17//3 6//3
f 6//4 17//4 11//4
f 6//9 12//9 18//9
f 18//10 12//10 6//10
f 18//10 12//10 6//10
f 6//9 12//9 18//9
f 7//11 16//11 13//11
f 13//12 16//12 7//12
f 13//12 16//12 7//12
f 7//11 16//11 13//11
f 13//4 15//4 4//4
f 4//3 15//3 13//3
f 13//3 4//3 15//3
f 15//4 4//4 13//4
f 14//10 10//10 7//10
f 7//9 10//9 14//9
f 7//9 10//9 14//9
f 14//10 10//10 7//10
f 15//13 19//13 8//13
f 8//14 19//14 15//14
f 15//14 8//14 19//14
f 19//13 8//13 15//13
f 16//3 8//3 19//3
f 19//4 8//4 16//4
f 16//4 19//4 8//4
f 8//3 19//3 16//3
f 17//2 5//2 11//2
f 11//1 5//1 17//1
f 17//1 11//1 5//1
f 5//2 11//2 17//2
f 17//8 20//8 9//8
f 9//7 20//7 17//7
f 17//7 9//7 20//7
f 20//8 9//8 17//8
f 9//3 20//3 12//3
f 12//4 20//4 9//4
f 9//4 12//4 20//4
f 20//3 12//3 9//3
f 7//10 10//10 16//10
f 16//9 10//9 7//9
f 7//9 16//9 10//9
f 10//10 16//10 7//10
f 11//6 10//6 14//6
f 14//5 10//5 11//5
f 11//5 14//5 10//5
f 10//6 14//6 11//6
f 17//4 6//4 21//4
f 21//3 6//3 17//3
f 17//3 21//3 6//3
f 6//4 21//4 17//4
f 18//9 12//9 22//9
f 22//10 12//10 18//10
f 18//10 22//10 12//10
f 12//9 22//9 18//9
f 23//4 6//4 18//4
f 18//3 6//3 23//3
f 23//3 18//3 6//3
f 6//4 18//4 23//4
f 13//11 16//11 19//11
f 19//12 16//12 13//12
f 13//12 19//12 16//12
f 16//11 19//11 13//11
f 13//13 19//13 15//13
f 15//14 19//14 13//14
f 15//14 19//14 13//14
f 13//13 19//13 15//13
f 21//8 20//8 17//8
f 17//7 20//7 21//7
f 17//7 20//7 21//7
f 21//8 20//8 17//8
f 20//3 22//3 12//3
f 12//4 22//4 20//4
f 20//4 12//4 22//4
f 22//3 12//3 20//3
f 21//4 6//4 23//4
f 23//3 6//3 21//3
f 21//3 23//3 6//3
f 6//4 23//4 21//4
f 18//15 22//15 23//15
f 23//16 22//16 18//16
f 23//16 22//16 18//16
f 18//15 22//15 23//15
f 21//17 24//17 20//17
f 20//18 24//18 21//18
f 21//18 20//18 24//18
f 24//17 20//17 21//17
f 20//3 24//3 22//3
f 22//4 24//4 20//4
f 20//4 22//4 24//4
f 24//3 22//3 20//3
f 23//17 24//17 21//17
f 21//18 24//18 23//18
f 21//18 24//18 23//18
f 23//17 24//17 21//17
f 23//15 22//15 24//15
f 24//16 22//16 23//16
f 23//16 24//16 22//16
f 22//15 24//15 23//15
