# SSTK version 0.8.0
# 12
mtllib original-12.mtl
o mesh12/mesh12-geometry#mesh12-geometry
v 0.116177 -0.144606 -0.072570
v 0.168299 -0.039706 -0.005454
v 0.171226 -0.099226 0.008388
v 0.112394 -0.036305 -0.099091
v 0.168001 -0.145581 0.342572
v 0.110869 -0.193066 0.299556
v 0.104387 -0.056061 0.304898
v 0.161519 -0.055821 0.303915
v 0.169614 -0.115924 0.489143
v 0.107239 -0.165954 0.484520
v 0.102049 -0.085835 0.480705
v 0.163868 -0.087045 0.480374
v 0.104643 -0.125893 0.482612
v -0.131447 -0.085835 0.480705
v -0.134041 -0.125893 0.482612
v -0.193265 -0.087045 0.480374
v -0.140266 -0.193066 0.299556
v -0.136637 -0.165954 0.484520
v -0.133784 -0.056061 0.304898
v -0.199011 -0.115924 0.489143
v -0.197398 -0.145581 0.342572
v -0.145574 -0.144606 -0.072570
v -0.190917 -0.055821 0.303915
v -0.200624 -0.099226 0.008388
v -0.141791 -0.036305 -0.099091
v -0.197696 -0.039706 -0.005454
vn 0.8448201411470697 -0.08142701360429719 -0.5288180883514962
vn -0.8448201411470697 0.08142701360429719 0.5288180883514962
vn 0.8531288611443313 -0.09578398441015196 -0.5128319165312276
vn -0.8531288611443313 0.09578398441015196 0.5128319165312276
vn 0.9984466108360397 0.05306097931845265 0.016996993375091696
vn -0.9984466108360397 -0.05306097931845265 -0.016996993375091696
vn 0.7029500815316699 -0.7064990819433008 -0.08197700950810415
vn -0.7029500815316699 0.7064990819433008 0.08197700950810415
vn -0.9989535889067077 -0.04022398344686883 -0.021765991042774154
vn 0.9989535889067077 0.04022398344686883 0.021765991042774154
vn 0.9961889817886694 0.08320399847894772 0.026164999521677668
vn -0.9961889817886694 -0.08320399847894772 -0.026164999521677668
vn 0.6774979631800193 -0.7294109603587037 -0.09463699485676355
vn -0.6774979631800193 0.7294109603587037 0.09463699485676355
vn -0.9987140827629402 -0.04645700384986883 -0.020296001681919595
vn 0.9987140827629402 0.04645700384986883 0.020296001681919595
vn 0.9978037142884266 0.06192798226751314 -0.023508993268424067
vn -0.9978037142884266 -0.06192798226751314 0.023508993268424067
vn 0.5741810108284798 -0.8083800152452388 0.1297610024471626
vn -0.5741810108284798 0.8083800152452388 -0.1297610024471626
vn -0.9986980663415174 -0.046424003083853776 -0.021142001404420928
vn 0.9986980663415174 0.046424003083853776 0.021142001404420928
vn 0.979183955010415 0.20170599073241674 0.022659998958863756
vn -0.979183955010415 -0.20170599073241674 -0.022659998958863756
vn 0.6117641230080364 -0.7766091561535954 0.15040903024289698
vn -0.6117641230080364 0.7766091561535954 -0.15040903024289698
vn -0.9978273061439417 -0.0651150199779749 -0.010035003078844798
vn 0.9978273061439417 0.0651150199779749 0.010035003078844798
vn -0.2568991010049109 0.2336280918554579 0.9377743687043522
vn 0.2568991010049109 -0.2336280918554579 -0.9377743687043522
vn 0.006275000113869291 0.047971000870505556 0.9988290181252509
vn -0.006275000113869291 -0.047971000870505556 -0.9988290181252509
vn 0 -0.047566004619134704 -0.9988680970000855
vn 0 0.047566004619134704 0.9988680970000855
vn 0.006275000113869291 -0.047971000870505556 -0.9988290181252509
vn -0.006275000113869291 0.047971000870505556 0.9988290181252509
vn -0.9978273061439417 0.0651150199779749 0.010035003078844798
vn 0.9978273061439417 -0.0651150199779749 -0.010035003078844798
vn -0.9986980663415174 0.046424003083853776 0.021142001404420928
vn 0.9986980663415174 -0.046424003083853776 -0.021142001404420928
vn -0.2568991010049109 -0.2336280918554579 -0.9377743687043522
vn 0.2568991010049109 0.2336280918554579 0.9377743687043522
vn 0.5741810108284798 0.8083800152452388 -0.1297610024471626
vn -0.5741810108284798 -0.8083800152452388 0.1297610024471626
vn -0.9987140827629402 0.04645700384986883 0.020296001681919595
vn 0.9987140827629402 -0.04645700384986883 -0.020296001681919595
vn 0.6117641230080364 0.7766091561535954 -0.15040903024289698
vn -0.6117641230080364 -0.7766091561535954 0.15040903024289698
vn 0.979183955010415 -0.20170599073241674 -0.022659998958863756
vn -0.979183955010415 0.20170599073241674 0.022659998958863756
vn 0.6774979631800193 0.7294109603587037 0.09463699485676355
vn -0.6774979631800193 -0.7294109603587037 -0.09463699485676355
vn 0.7029500815316699 0.7064990819433008 0.08197700950810415
vn -0.7029500815316699 -0.7064990819433008 -0.08197700950810415
vn -0.9989535889067077 0.04022398344686883 0.021765991042774154
vn 0.9989535889067077 -0.04022398344686883 -0.021765991042774154
vn 0.9978037142884266 -0.06192798226751314 0.023508993268424067
vn -0.9978037142884266 0.06192798226751314 -0.023508993268424067
vn 0.9984466108360397 -0.05306097931845265 -0.016996993375091696
vn -0.9984466108360397 0.05306097931845265 0.016996993375091696
vn 0.8448201411470697 0.08142701360429719 0.5288180883514962
vn -0.8448201411470697 -0.08142701360429719 -0.5288180883514962
vn 0.8531288611443313 0.09578398441015196 0.5128319165312276
vn -0.8531288611443313 -0.09578398441015196 -0.5128319165312276
vn 0.9961889817886694 -0.08320399847894772 -0.026164999521677668
vn -0.9961889817886694 0.08320399847894772 0.026164999521677668
usemtl material_0_0
f 1//1 2//1 3//1
f 3//2 2//2 1//2
f 1//2 3//2 2//2
f 2//1 3//1 1//1
f 4//3 2//3 1//3
f 1//4 2//4 4//4
f 4//4 1//4 2//4
f 2//3 1//3 4//3
f 2//5 5//5 3//5
f 3//6 5//6 2//6
f 2//6 3//6 5//6
f 5//5 3//5 2//5
f 3//7 6//7 1//7
f 1//8 6//8 3//8
f 3//8 1//8 6//8
f 6//7 1//7 3//7
f 4//9 1//9 7//9
f 7//10 1//10 4//10
f 4//10 7//10 1//10
f 1//9 7//9 4//9
f 2//11 8//11 5//11
f 5//12 8//12 2//12
f 2//12 5//12 8//12
f 8//11 5//11 2//11
f 3//13 5//13 6//13
f 6//14 5//14 3//14
f 3//14 6//14 5//14
f 5//13 6//13 3//13
f 1//15 6//15 7//15
f 7//16 6//16 1//16
f 1//16 7//16 6//16
f 6//15 7//15 1//15
f 8//17 9//17 5//17
f 5//18 9//18 8//18
f 8//18 5//18 9//18
f 9//17 5//17 8//17
f 5//19 10//19 6//19
f 6//20 10//20 5//20
f 5//20 6//20 10//20
f 10//19 6//19 5//19
f 6//21 11//21 7//21
f 7//22 11//22 6//22
f 6//22 7//22 11//22
f 11//21 7//21 6//21
f 8//23 12//23 9//23
f 9//24 12//24 8//24
f 8//24 9//24 12//24
f 12//23 9//23 8//23
f 9//25 10//25 5//25
f 5//26 10//26 9//26
f 9//26 5//26 10//26
f 10//25 5//25 9//25
f 13//27 6//27 10//27
f 10//28 6//28 13//28
f 6//28 13//28 10//28
f 10//27 13//27 6//27
f 6//27 13//27 11//27
f 11//28 13//28 6//28
f 13//28 6//28 11//28
f 11//27 6//27 13//27
f 12//29 10//29 9//29
f 9//30 10//30 12//30
f 12//30 9//30 10//30
f 10//29 9//29 12//29
f 12//31 13//31 10//31
f 10//32 13//32 12//32
f 13//32 12//32 10//32
f 10//31 12//31 13//31
f 13//31 12//31 11//31
f 11//32 12//32 13//32
f 12//32 13//32 11//32
f 11//31 13//31 12//31
f 11//33 13//33 14//33
f 14//34 13//34 11//34
f 14//34 13//34 11//34
f 11//33 13//33 14//33
f 14//33 13//33 15//33
f 15//34 13//34 14//34
f 14//34 15//34 13//34
f 13//33 15//33 14//33
f 15//35 16//35 14//35
f 14//36 16//36 15//36
f 16//36 15//36 14//36
f 14//35 15//35 16//35
f 17//37 15//37 14//37
f 14//38 15//38 17//38
f 15//38 17//38 14//38
f 14//37 17//37 15//37
f 16//35 15//35 18//35
f 18//36 15//36 16//36
f 15//36 16//36 18//36
f 18//35 16//35 15//35
f 15//37 17//37 18//37
f 18//38 17//38 15//38
f 17//38 15//38 18//38
f 18//37 15//37 17//37
f 17//39 14//39 19//39
f 19//40 14//40 17//40
f 17//40 19//40 14//40
f 14//39 19//39 17//39
f 16//41 18//41 20//41
f 20//42 18//42 16//42
f 16//42 20//42 18//42
f 18//41 20//41 16//41
f 18//43 17//43 21//43
f 21//44 17//44 18//44
f 18//44 21//44 17//44
f 17//43 21//43 18//43
f 22//45 17//45 19//45
f 19//46 17//46 22//46
f 22//46 19//46 17//46
f 17//45 19//45 22//45
f 18//47 21//47 20//47
f 20//48 21//48 18//48
f 18//48 20//48 21//48
f 21//47 20//47 18//47
f 23//49 16//49 20//49
f 20//50 16//50 23//50
f 23//50 20//50 16//50
f 16//49 20//49 23//49
f 17//51 24//51 21//51
f 21//52 24//52 17//52
f 17//52 21//52 24//52
f 24//51 21//51 17//51
f 17//53 22//53 24//53
f 24//54 22//54 17//54
f 17//54 24//54 22//54
f 22//53 24//53 17//53
f 25//55 22//55 19//55
f 19//56 22//56 25//56
f 25//56 19//56 22//56
f 22//55 19//55 25//55
f 23//57 20//57 21//57
f 21//58 20//58 23//58
f 23//58 21//58 20//58
f 20//57 21//57 23//57
f 26//59 21//59 24//59
f 24//60 21//60 26//60
f 26//60 24//60 21//60
f 21//59 24//59 26//59
f 22//61 26//61 24//61
f 24//62 26//62 22//62
f 22//62 24//62 26//62
f 26//61 24//61 22//61
f 25//63 26//63 22//63
f 22//64 26//64 25//64
f 25//64 22//64 26//64
f 26//63 22//63 25//63
f 26//65 23//65 21//65
f 21//66 23//66 26//66
f 26//66 21//66 23//66
f 23//65 21//65 26//65
