# SSTK version 0.8.0
# 18
mtllib original-18.mtl
o mesh18/mesh18-geometry#mesh18-geometry
v -0.522897 -0.737056 0.240810
v -0.523708 -0.709787 0.245475
v -0.523708 -0.740702 0.245475
v -0.521855 -0.709787 0.238563
v -0.522659 -0.746121 0.250749
v -0.520195 -0.734268 0.236271
v -0.521855 -0.709787 0.252386
v -0.516796 -0.709787 0.233503
v -0.523708 -0.729949 0.225484
v -0.519888 -0.752059 0.255014
v -0.509884 -0.709787 0.259298
v -0.515656 -0.732605 0.232915
v -0.516796 -0.709787 0.257446
v -0.509884 -0.709787 0.231651
v -0.509884 -0.732058 0.231651
v -0.515793 -0.757638 0.257966
v -0.513119 -0.759888 0.258914
v -0.502973 -0.709787 0.233503
v -0.496061 -0.729949 0.225484
v -0.511597 -0.760613 0.259194
v -0.504112 -0.732605 0.232915
v -0.496061 -0.729160 0.202799
v -0.509884 -0.760895 0.259298
v -0.499574 -0.734268 0.236271
v -0.523708 -0.729160 0.202799
v -0.496061 -0.738498 0.182110
v -0.508172 -0.760613 0.259194
v -0.497913 -0.709787 0.238563
v -0.496872 -0.737056 0.240810
v -0.523708 -0.738498 0.182110
v -0.496061 -0.740702 0.245475
v -0.506650 -0.759888 0.258914
v -0.496061 -0.756032 0.167695
v -0.502973 -0.709787 0.257446
v -0.496061 -0.709787 0.245475
v -0.523708 -0.756032 0.167695
v -0.496061 -0.778136 0.162534
v -0.503976 -0.757638 0.257966
v -0.523708 -0.751397 0.254604
v -0.496061 -0.751397 0.254604
v -0.523708 -0.778136 0.162534
v -0.499881 -0.752059 0.255014
v -0.497110 -0.746121 0.250749
v -0.496061 -0.764214 0.260389
v -0.523708 -0.778136 0.262370
v -0.497913 -0.709787 0.252386
v -0.523708 -0.764214 0.260389
v -0.496061 -0.778136 0.262370
vn 0.9852208323341478 0 0.17128897084987413
vn -0.9852208323341478 0 -0.17128897084987413
vn 0.9657960558611626 -0.015553000899577878 0.2588360149709461
vn -0.9657960558611626 0.015553000899577878 -0.2588360149709461
vn 0.980788315534854 0 -0.19507506275868144
vn -0.980788315534854 0 0.19507506275868144
vn 0.8565860878351984 0.00980100100500438 0.515911052902038
vn -0.8565860878351984 -0.00980100100500438 -0.515911052902038
vn 0.9658676227466682 -0.009688996215624095 -0.25885489889517904
vn -0.9658676227466682 0.009688996215624095 0.25885489889517904
vn 0.706990261019085 -0.018231006730843505 0.7069882610183466
vn -0.706990261019085 0.018231006730843505 -0.7069882610183466
vn 0.2051789578375751 -0.8837148184045768 -0.4206539135594157
vn -0.2051789578375751 0.8837148184045768 0.4206539135594157
vn 0.8421681498499398 0.005678001010306802 -0.5391850959390998
vn -0.8421681498499398 -0.005678001010306802 0.5391850959390998
vn 0 -1 0
vn 0 1 0
vn 0.592425144777467 0.008822002155929794 0.805577196867785
vn -0.592425144777467 -0.008822002155929794 -0.805577196867785
vn 0.05228597524832189 -0.9210875639660006 -0.38582881735234664
vn -0.05228597524832189 0.9210875639660006 0.38582881735234664
vn 0.707064133538266 -0.011047002086369993 -0.7070631335380771
vn -0.707064133538266 0.011047002086369993 0.7070631335380771
vn 0.2588449219723748 -0.011970996391397766 0.9658447088505026
vn -0.2588449219723748 0.011970996391397766 -0.9658447088505026
vn 0.012473002007242955 -0.9372391508270969 -0.34846405607727987
vn -0.012473002007242955 0.9372391508270969 0.34846405607727987
vn 0.5879520719265331 0.003522000430860606 -0.8088880989545226
vn -0.5879520719265331 -0.003522000430860606 0.8088880989545226
vn 0.25885389777861595 -0.009309996323482965 -0.9658716185773732
vn -0.25885389777861595 0.009309996323482965 0.9658716185773732
vn 0.21392999853447256 0 0.9768489933080959
vn -0.21392999853447256 0 -0.9768489933080959
vn 0 -0.9462039045956844 -0.3235709673748266
vn 0 0.9462039045956844 0.3235709673748266
vn 0.3315550200953846 -0.003316000200980911 -0.9434300571808258
vn -0.3315550200953846 0.003316000200980911 0.9434300571808258
vn 0.17878597280665562 -0.004001999391295721 -0.9838798503518861
vn -0.17878597280665562 0.004001999391295721 0.9838798503518861
vn -0.25884491887361477 -0.011971996247773656 0.9658446972879
vn 0.25884491887361477 0.011971996247773656 -0.9658446972879
vn -0.21392809006534938 0 0.9768494112610152
vn 0.21392809006534938 0 -0.9768494112610152
vn -0.012473002007242955 -0.9372391508270969 -0.34846405607727987
vn 0.012473002007242955 0.9372391508270969 0.34846405607727987
vn 0 -0.9993950275503232 -0.03477900095875295
vn 0 0.9993950275503232 0.03477900095875295
vn 0.06087502414760499 0 -0.9981453959394033
vn -0.06087502414760499 0 0.9981453959394033
vn -0.5924291778597068 0.008821002648250455 0.8055742418503407
vn 0.5924291778597068 -0.008821002648250455 -0.8055742418503407
vn -0.05228602340830107 -0.9210874123681636 -0.38582917273460204
vn 0.05228602340830107 0.9210874123681636 0.38582917273460204
vn -1 0 0
vn 1 0 0
vn -0.06087502414760499 0 -0.9981453959394033
vn 0.06087502414760499 0 0.9981453959394033
vn -0.706990261019085 -0.018231006730843505 0.7069882610183466
vn 0.706990261019085 0.018231006730843505 -0.7069882610183466
vn -0.2051789578375751 -0.8837148184045768 -0.4206539135594157
vn 0.2051789578375751 0.8837148184045768 0.4206539135594157
vn 0 -0.9114525366957684 0.4114052422500827
vn 0 0.9114525366957684 -0.4114052422500827
vn -0.17878597280665562 -0.004001999391295721 -0.9838798503518861
vn 0.17878597280665562 0.004001999391295721 0.9838798503518861
vn -0.8565860878351984 0.00980100100500438 0.515911052902038
vn 0.8565860878351984 -0.00980100100500438 -0.515911052902038
vn -0.25885389777861595 -0.009309996323482965 -0.9658716185773732
vn 0.25885389777861595 0.009309996323482965 0.9658716185773732
vn -0.9657960558611626 -0.015553000899577878 0.2588360149709461
vn 0.9657960558611626 0.015553000899577878 -0.2588360149709461
vn 0 -0.6350450706011398 0.7724750858799223
vn 0 0.6350450706011398 -0.7724750858799223
vn -0.3315550200953846 -0.003316000200980911 -0.9434300571808258
vn 0.3315550200953846 0.003316000200980911 0.9434300571808258
vn -0.9852208323341478 0 0.17128897084987413
vn 0.9852208323341478 0 -0.17128897084987413
vn 0 -0.22736396537292566 0.9738098516907184
vn 0 0.22736396537292566 -0.9738098516907184
vn -0.5879520719265331 0.003522000430860606 -0.8088880989545226
vn 0.5879520719265331 -0.003522000430860606 0.8088880989545226
vn -0.980788315534854 0 -0.19507506275868144
vn 0.980788315534854 0 0.19507506275868144
vn -0.707064133538266 -0.011047002086369993 -0.7070631335380771
vn 0.707064133538266 0.011047002086369993 0.7070631335380771
vn -0.9658676227466682 -0.009688996215624095 -0.25885489889517904
vn 0.9658676227466682 0.009688996215624095 0.25885489889517904
vn -0.8421681498499398 0.005678001010306802 -0.5391850959390998
vn 0.8421681498499398 -0.005678001010306802 0.5391850959390998
usemtl material_0_0
f 1//1 2//1 3//1
f 3//2 2//2 1//2
f 1//2 3//2 2//2
f 2//1 3//1 1//1
f 4//3 2//3 1//3
f 1//4 2//4 4//4
f 4//4 1//4 2//4
f 2//3 1//3 4//3
f 2//5 5//5 3//5
f 3//6 5//6 2//6
f 3//6 5//6 2//6
f 2//5 5//5 3//5
f 6//7 4//7 1//7
f 1//8 4//8 6//8
f 6//8 1//8 4//8
f 4//7 1//7 6//7
f 2//9 7//9 5//9
f 5//10 7//10 2//10
f 2//10 5//10 7//10
f 7//9 5//9 2//9
f 8//11 4//11 6//11
f 6//12 4//12 8//12
f 8//12 6//12 4//12
f 4//11 6//11 8//11
f 6//13 1//13 9//13
f 9//14 1//14 6//14
f 6//14 9//14 1//14
f 1//13 9//13 6//13
f 5//15 7//15 10//15
f 10//16 7//16 5//16
f 5//16 10//16 7//16
f 7//15 10//15 5//15
f 11//17 4//17 8//17
f 8//18 4//18 11//18
f 11//18 8//18 4//18
f 4//17 8//17 11//17
f 8//19 6//19 12//19
f 12//20 6//20 8//20
f 8//20 12//20 6//20
f 6//19 12//19 8//19
f 12//21 6//21 9//21
f 9//22 6//22 12//22
f 12//22 9//22 6//22
f 6//21 9//21 12//21
f 7//23 13//23 10//23
f 10//24 13//24 7//24
f 7//24 10//24 13//24
f 13//23 10//23 7//23
f 11//17 13//17 4//17
f 4//18 13//18 11//18
f 11//18 4//18 13//18
f 13//17 4//17 11//17
f 11//17 8//17 14//17
f 14//18 8//18 11//18
f 14//18 8//18 11//18
f 11//17 8//17 14//17
f 8//25 12//25 14//25
f 14//26 12//26 8//26
f 14//26 12//26 8//26
f 8//25 12//25 14//25
f 15//27 12//27 9//27
f 9//28 12//28 15//28
f 15//28 9//28 12//28
f 12//27 9//27 15//27
f 13//29 16//29 10//29
f 10//30 16//30 13//30
f 13//30 10//30 16//30
f 16//29 10//29 13//29
f 11//31 17//31 13//31
f 13//32 17//32 11//32
f 13//32 17//32 11//32
f 11//31 17//31 13//31
f 18//17 11//17 14//17
f 14//18 11//18 18//18
f 18//18 14//18 11//18
f 11//17 14//17 18//17
f 14//33 12//33 15//33
f 15//34 12//34 14//34
f 14//34 15//34 12//34
f 12//33 15//33 14//33
f 19//35 15//35 9//35
f 9//36 15//36 19//36
f 19//36 9//36 15//36
f 15//35 9//35 19//35
f 13//37 17//37 16//37
f 16//38 17//38 13//38
f 13//38 16//38 17//38
f 17//37 16//37 13//37
f 11//39 20//39 17//39
f 17//40 20//40 11//40
f 11//40 17//40 20//40
f 20//39 17//39 11//39
f 14//41 21//41 18//41
f 18//42 21//42 14//42
f 18//42 21//42 14//42
f 14//41 21//41 18//41
f 14//43 15//43 21//43
f 21//44 15//44 14//44
f 14//44 21//44 15//44
f 15//43 21//43 14//43
f 19//45 21//45 15//45
f 15//46 21//46 19//46
f 19//46 15//46 21//46
f 21//45 15//45 19//45
f 19//47 9//47 22//47
f 22//48 9//48 19//48
f 22//48 9//48 19//48
f 19//47 9//47 22//47
f 11//49 23//49 20//49
f 20//50 23//50 11//50
f 11//50 20//50 23//50
f 23//49 20//49 11//49
f 18//51 21//51 24//51
f 24//52 21//52 18//52
f 18//52 24//52 21//52
f 21//51 24//51 18//51
f 19//53 24//53 21//53
f 21//54 24//54 19//54
f 19//54 21//54 24//54
f 24//53 21//53 19//53
f 22//47 9//47 25//47
f 25//48 9//48 22//48
f 22//48 25//48 9//48
f 9//47 25//47 22//47
f 26//55 19//55 22//55
f 22//56 19//56 26//56
f 26//56 22//56 19//56
f 19//55 22//55 26//55
f 11//57 27//57 23//57
f 23//58 27//58 11//58
f 11//58 23//58 27//58
f 27//57 23//57 11//57
f 18//59 24//59 28//59
f 28//60 24//60 18//60
f 18//60 28//60 24//60
f 24//59 28//59 18//59
f 19//61 29//61 24//61
f 24//62 29//62 19//62
f 19//62 24//62 29//62
f 29//61 24//61 19//61
f 30//56 25//56 9//56
f 9//55 25//55 30//55
f 30//55 9//55 25//55
f 25//56 9//56 30//56
f 22//63 25//63 26//63
f 26//64 25//64 22//64
f 26//64 25//64 22//64
f 22//63 25//63 26//63
f 26//55 31//55 19//55
f 19//56 31//56 26//56
f 26//56 19//56 31//56
f 31//55 19//55 26//55
f 11//65 32//65 27//65
f 27//66 32//66 11//66
f 11//66 27//66 32//66
f 32//65 27//65 11//65
f 24//67 29//67 28//67
f 28//68 29//68 24//68
f 24//68 28//68 29//68
f 29//67 28//67 24//67
f 26//63 25//63 30//63
f 30//64 25//64 26//64
f 26//64 30//64 25//64
f 25//63 30//63 26//63
f 30//56 9//56 3//56
f 3//55 9//55 30//55
f 30//55 3//55 9//55
f 9//56 3//56 30//56
f 33//55 31//55 26//55
f 26//56 31//56 33//56
f 33//56 26//56 31//56
f 31//55 26//55 33//55
f 34//69 32//69 11//69
f 11//70 32//70 34//70
f 11//70 32//70 34//70
f 34//69 32//69 11//69
f 28//71 29//71 35//71
f 35//72 29//72 28//72
f 28//72 35//72 29//72
f 29//71 35//71 28//71
f 30//73 33//73 26//73
f 26//74 33//74 30//74
f 26//74 33//74 30//74
f 30//73 33//73 26//73
f 36//56 30//56 3//56
f 3//55 30//55 36//55
f 36//55 3//55 30//55
f 30//56 3//56 36//56
f 37//55 31//55 33//55
f 33//56 31//56 37//56
f 37//56 33//56 31//56
f 31//55 33//55 37//55
f 34//75 38//75 32//75
f 32//76 38//76 34//76
f 34//76 32//76 38//76
f 38//75 32//75 34//75
f 29//77 31//77 35//77
f 35//78 31//78 29//78
f 29//78 35//78 31//78
f 31//77 35//77 29//77
f 30//73 36//73 33//73
f 33//74 36//74 30//74
f 30//74 33//74 36//74
f 36//73 33//73 30//73
f 36//56 3//56 39//56
f 39//55 3//55 36//55
f 36//55 39//55 3//55
f 3//56 39//56 36//56
f 37//55 40//55 31//55
f 31//56 40//56 37//56
f 37//56 31//56 40//56
f 40//55 31//55 37//55
f 33//79 41//79 37//79
f 37//80 41//80 33//80
f 33//80 37//80 41//80
f 41//79 37//79 33//79
f 34//81 42//81 38//81
f 38//82 42//82 34//82
f 34//82 38//82 42//82
f 42//81 38//81 34//81
f 31//83 43//83 35//83
f 35//84 43//84 31//84
f 35//84 43//84 31//84
f 31//83 43//83 35//83
f 36//79 41//79 33//79
f 33//80 41//80 36//80
f 33//80 41//80 36//80
f 36//79 41//79 33//79
f 41//56 36//56 39//56
f 39//55 36//55 41//55
f 41//55 39//55 36//55
f 36//56 39//56 41//56
f 37//55 44//55 40//55
f 40//56 44//56 37//56
f 37//56 40//56 44//56
f 44//55 40//55 37//55
f 37//18 41//18 45//18
f 45//17 41//17 37//17
f 37//17 45//17 41//17
f 41//18 45//18 37//18
f 46//85 42//85 34//85
f 34//86 42//86 46//86
f 46//86 34//86 42//86
f 42//85 34//85 46//85
f 35//87 43//87 46//87
f 46//88 43//88 35//88
f 35//88 46//88 43//88
f 43//87 46//87 35//87
f 41//56 39//56 47//56
f 47//55 39//55 41//55
f 41//55 47//55 39//55
f 39//56 47//56 41//56
f 37//55 48//55 44//55
f 44//56 48//56 37//56
f 37//56 44//56 48//56
f 48//55 44//55 37//55
f 41//56 47//56 45//56
f 45//55 47//55 41//55
f 41//55 45//55 47//55
f 47//56 45//56 41//56
f 37//18 45//18 48//18
f 48//17 45//17 37//17
f 48//17 45//17 37//17
f 37//18 45//18 48//18
f 43//89 42//89 46//89
f 46//90 42//90 43//90
f 43//90 46//90 42//90
f 42//89 46//89 43//89
