# SSTK version 0.8.0
# 15
mtllib original-15.mtl
o mesh15/mesh15-geometry#mesh15-geometry
v -0.027865 -0.737056 0.600680
v -0.028676 -0.709787 0.605344
v -0.028676 -0.740702 0.605344
v -0.026823 -0.709787 0.598433
v -0.027627 -0.746121 0.610619
v -0.025163 -0.734268 0.596141
v -0.026823 -0.709787 0.612256
v -0.021764 -0.709787 0.593373
v -0.028676 -0.729949 0.585354
v -0.024856 -0.752059 0.614884
v -0.014852 -0.709787 0.619168
v -0.020624 -0.732605 0.592785
v -0.021764 -0.709787 0.617315
v -0.014852 -0.709787 0.591521
v -0.014852 -0.732058 0.591521
v -0.020761 -0.757638 0.617836
v -0.018087 -0.759888 0.618784
v -0.007941 -0.709787 0.593373
v -0.001029 -0.729949 0.585354
v -0.016565 -0.760613 0.619063
v -0.009080 -0.732605 0.592785
v -0.001029 -0.729160 0.562668
v -0.014852 -0.760895 0.619168
v -0.004542 -0.734268 0.596141
v -0.028676 -0.729160 0.562668
v -0.001029 -0.738498 0.541979
v -0.013140 -0.760613 0.619063
v -0.002881 -0.709787 0.598433
v -0.001840 -0.737056 0.600680
v -0.028676 -0.738498 0.541979
v -0.001029 -0.740702 0.605344
v -0.011618 -0.759888 0.618784
v -0.001029 -0.756032 0.527565
v -0.007941 -0.709787 0.617315
v -0.001029 -0.709787 0.605344
v -0.028676 -0.756032 0.527565
v -0.001029 -0.778136 0.522404
v -0.008944 -0.757638 0.617836
v -0.028676 -0.751397 0.614474
v -0.001029 -0.751397 0.614474
v -0.028676 -0.778136 0.522404
v -0.004849 -0.752059 0.614884
v -0.002078 -0.746121 0.610619
v -0.001029 -0.764214 0.620258
v -0.028676 -0.778136 0.622240
v -0.002881 -0.709787 0.612256
v -0.028676 -0.764214 0.620258
v -0.001029 -0.778136 0.622240
vn 0.9852210010911323 0 0.17128800018970147
vn -0.9852210010911323 0 -0.17128800018970147
vn 0.9657963058435937 -0.015553004925248675 0.2588350819666126
vn -0.9657963058435937 0.015553004925248675 -0.2588350819666126
vn 0.9807889275662884 0 -0.1950719855934467
vn -0.9807889275662884 0 0.1950719855934467
vn 0.8565867960167277 0.009800997666039587 0.5159098771438161
vn -0.8565867960167277 -0.009800997666039587 -0.5159098771438161
vn 0.9658681227840612 -0.009689001231694925 -0.25885303290617623
vn -0.9658681227840612 0.009689001231694925 0.25885303290617623
vn 0.7069917611803445 -0.018230993841626172 0.7069867611820335
vn -0.7069917611803445 0.018230993841626172 -0.7069867611820335
vn 0.2051739870075629 -0.8837159440395733 -0.42065397336250887
vn -0.2051739870075629 0.8837159440395733 0.42065397336250887
vn 0.8421681498499398 0.005678001010306802 -0.5391850959390998
vn -0.8421681498499398 -0.005678001010306802 0.5391850959390998
vn 0 -1 0
vn 0 1 0
vn 0.5924262710540387 0.008822004036349895 0.8055763685770514
vn -0.5924262710540387 -0.008822004036349895 -0.8055763685770514
vn 0.05228600323480441 -0.9210870569853552 -0.38583002387034
vn -0.05228600323480441 0.9210870569853552 0.38583002387034
vn 0.7070661335344014 -0.011047002086303713 -0.7070611335334572
vn -0.7070661335344014 0.011047002086303713 0.7070611335334572
vn 0.2588421229720392 -0.011971005687246803 0.9658454588587986
vn -0.2588421229720392 0.011971005687246803 -0.9658454588587986
vn 0.01247299766084542 -0.9372388242325904 -0.3484649346497637
vn -0.01247299766084542 0.9372388242325904 0.3484649346497637
vn 0.5879527262383972 0.0035219983600929677 -0.8088876233670459
vn -0.5879527262383972 -0.0035219983600929677 0.8088876233670459
vn 0.2588499157794403 -0.009309996970857768 -0.9658726857393676
vn -0.2588499157794403 0.009309996970857768 0.9658726857393676
vn 0.21392692685529427 0 0.9768496660009919
vn -0.21392692685529427 0 -0.9768496660009919
vn 0 -0.9462039045956844 -0.3235709673748266
vn 0 0.9462039045956844 0.3235709673748266
vn 0.33155413002361944 -0.00331600130041638 -0.9434303699795004
vn -0.33155413002361944 0.00331600130041638 0.9434303699795004
vn 0.1787880840667133 -0.0040030018822237185 -0.9838794626231838
vn -0.1787880840667133 0.0040030018822237185 0.9838794626231838
vn -0.2588421229720392 -0.011971005687246803 0.9658454588587986
vn 0.2588421229720392 0.011971005687246803 -0.9658454588587986
vn -0.21392692685529427 0 0.9768496660009919
vn 0.21392692685529427 0 -0.9768496660009919
vn -0.01247299766084542 -0.9372388242325904 -0.3484649346497637
vn 0.01247299766084542 0.9372388242325904 0.3484649346497637
vn 0 -0.9993950275503232 -0.03477900095875295
vn 0 0.9993950275503232 0.03477900095875295
vn 0.060854976734112304 0 -0.9981466183916522
vn -0.060854976734112304 0 0.9981466183916522
vn -0.5924262710540387 0.008822004036349895 0.8055763685770514
vn 0.5924262710540387 -0.008822004036349895 -0.8055763685770514
vn -0.05228600323480441 -0.9210870569853552 -0.38583002387034
vn 0.05228600323480441 0.9210870569853552 0.38583002387034
vn -1 0 0
vn 1 0 0
vn -0.060854976734112304 0 -0.9981466183916522
vn 0.060854976734112304 0 0.9981466183916522
vn -0.7069917611803445 -0.018230993841626172 0.7069867611820335
vn 0.7069917611803445 0.018230993841626172 -0.7069867611820335
vn -0.2051739870075629 -0.8837159440395733 -0.42065397336250887
vn 0.2051739870075629 0.8837159440395733 0.42065397336250887
vn 0 -0.9114527059499098 0.4114048672738171
vn 0 0.9114527059499098 -0.4114048672738171
vn -0.1787880840667133 -0.0040030018822237185 -0.9838794626231838
vn 0.1787880840667133 0.0040030018822237185 0.9838794626231838
vn -0.8565867960167277 0.009800997666039587 0.5159098771438161
vn 0.8565867960167277 -0.009800997666039587 -0.5159098771438161
vn -0.2588499157794403 -0.009309996970857768 -0.9658726857393676
vn 0.2588499157794403 0.009309996970857768 0.9658726857393676
vn -0.9657963058435937 -0.015553004925248675 0.2588350819666126
vn 0.9657963058435937 0.015553004925248675 -0.2588350819666126
vn 0 -0.6350450706011398 0.7724750858799223
vn 0 0.6350450706011398 -0.7724750858799223
vn -0.33155413002361944 -0.00331600130041638 -0.9434303699795004
vn 0.33155413002361944 0.00331600130041638 0.9434303699795004
vn -0.9852210010911323 0 0.17128800018970147
vn 0.9852210010911323 0 -0.17128800018970147
vn 0 -0.22736491367808506 0.9738096302810714
vn 0 0.22736491367808506 -0.9738096302810714
vn -0.5879527262383972 0.0035219983600929677 -0.8088876233670459
vn 0.5879527262383972 -0.0035219983600929677 0.8088876233670459
vn -0.9807889275662884 0 -0.1950719855934467
vn 0.9807889275662884 0 0.1950719855934467
vn -0.7070661335344014 -0.011047002086303713 -0.7070611335334572
vn 0.7070661335344014 0.011047002086303713 0.7070611335334572
vn -0.9658681227840612 -0.009689001231694925 -0.25885303290617623
vn 0.9658681227840612 0.009689001231694925 0.25885303290617623
vn -0.8421681498499398 0.005678001010306802 -0.5391850959390998
vn 0.8421681498499398 -0.005678001010306802 0.5391850959390998
usemtl material_0_0
f 1//1 2//1 3//1
f 3//2 2//2 1//2
f 1//2 3//2 2//2
f 2//1 3//1 1//1
f 4//3 2//3 1//3
f 1//4 2//4 4//4
f 4//4 1//4 2//4
f 2//3 1//3 4//3
f 2//5 5//5 3//5
f 3//6 5//6 2//6
f 3//6 5//6 2//6
f 2//5 5//5 3//5
f 6//7 4//7 1//7
f 1//8 4//8 6//8
f 6//8 1//8 4//8
f 4//7 1//7 6//7
f 2//9 7//9 5//9
f 5//10 7//10 2//10
f 2//10 5//10 7//10
f 7//9 5//9 2//9
f 8//11 4//11 6//11
f 6//12 4//12 8//12
f 8//12 6//12 4//12
f 4//11 6//11 8//11
f 6//13 1//13 9//13
f 9//14 1//14 6//14
f 6//14 9//14 1//14
f 1//13 9//13 6//13
f 5//15 7//15 10//15
f 10//16 7//16 5//16
f 5//16 10//16 7//16
f 7//15 10//15 5//15
f 11//17 4//17 8//17
f 8//18 4//18 11//18
f 11//18 8//18 4//18
f 4//17 8//17 11//17
f 8//19 6//19 12//19
f 12//20 6//20 8//20
f 8//20 12//20 6//20
f 6//19 12//19 8//19
f 12//21 6//21 9//21
f 9//22 6//22 12//22
f 12//22 9//22 6//22
f 6//21 9//21 12//21
f 7//23 13//23 10//23
f 10//24 13//24 7//24
f 7//24 10//24 13//24
f 13//23 10//23 7//23
f 11//17 13//17 4//17
f 4//18 13//18 11//18
f 11//18 4//18 13//18
f 13//17 4//17 11//17
f 11//17 8//17 14//17
f 14//18 8//18 11//18
f 14//18 8//18 11//18
f 11//17 8//17 14//17
f 8//25 12//25 14//25
f 14//26 12//26 8//26
f 14//26 12//26 8//26
f 8//25 12//25 14//25
f 15//27 12//27 9//27
f 9//28 12//28 15//28
f 15//28 9//28 12//28
f 12//27 9//27 15//27
f 13//29 16//29 10//29
f 10//30 16//30 13//30
f 13//30 10//30 16//30
f 16//29 10//29 13//29
f 11//31 17//31 13//31
f 13//32 17//32 11//32
f 13//32 17//32 11//32
f 11//31 17//31 13//31
f 18//17 11//17 14//17
f 14//18 11//18 18//18
f 18//18 14//18 11//18
f 11//17 14//17 18//17
f 14//33 12//33 15//33
f 15//34 12//34 14//34
f 14//34 15//34 12//34
f 12//33 15//33 14//33
f 19//35 15//35 9//35
f 9//36 15//36 19//36
f 19//36 9//36 15//36
f 15//35 9//35 19//35
f 13//37 17//37 16//37
f 16//38 17//38 13//38
f 13//38 16//38 17//38
f 17//37 16//37 13//37
f 11//39 20//39 17//39
f 17//40 20//40 11//40
f 11//40 17//40 20//40
f 20//39 17//39 11//39
f 14//41 21//41 18//41
f 18//42 21//42 14//42
f 18//42 21//42 14//42
f 14//41 21//41 18//41
f 14//43 15//43 21//43
f 21//44 15//44 14//44
f 14//44 21//44 15//44
f 15//43 21//43 14//43
f 19//45 21//45 15//45
f 15//46 21//46 19//46
f 19//46 15//46 21//46
f 21//45 15//45 19//45
f 19//47 9//47 22//47
f 22//48 9//48 19//48
f 22//48 9//48 19//48
f 19//47 9//47 22//47
f 11//49 23//49 20//49
f 20//50 23//50 11//50
f 11//50 20//50 23//50
f 23//49 20//49 11//49
f 18//51 21//51 24//51
f 24//52 21//52 18//52
f 18//52 24//52 21//52
f 21//51 24//51 18//51
f 19//53 24//53 21//53
f 21//54 24//54 19//54
f 19//54 21//54 24//54
f 24//53 21//53 19//53
f 22//47 9//47 25//47
f 25//48 9//48 22//48
f 22//48 25//48 9//48
f 9//47 25//47 22//47
f 26//55 19//55 22//55
f 22//56 19//56 26//56
f 26//56 22//56 19//56
f 19//55 22//55 26//55
f 11//57 27//57 23//57
f 23//58 27//58 11//58
f 11//58 23//58 27//58
f 27//57 23//57 11//57
f 18//59 24//59 28//59
f 28//60 24//60 18//60
f 18//60 28//60 24//60
f 24//59 28//59 18//59
f 19//61 29//61 24//61
f 24//62 29//62 19//62
f 19//62 24//62 29//62
f 29//61 24//61 19//61
f 30//56 25//56 9//56
f 9//55 25//55 30//55
f 30//55 9//55 25//55
f 25//56 9//56 30//56
f 22//63 25//63 26//63
f 26//64 25//64 22//64
f 26//64 25//64 22//64
f 22//63 25//63 26//63
f 26//55 31//55 19//55
f 19//56 31//56 26//56
f 26//56 19//56 31//56
f 31//55 19//55 26//55
f 11//65 32//65 27//65
f 27//66 32//66 11//66
f 11//66 27//66 32//66
f 32//65 27//65 11//65
f 24//67 29//67 28//67
f 28//68 29//68 24//68
f 24//68 28//68 29//68
f 29//67 28//67 24//67
f 26//63 25//63 30//63
f 30//64 25//64 26//64
f 26//64 30//64 25//64
f 25//63 30//63 26//63
f 30//56 9//56 3//56
f 3//55 9//55 30//55
f 30//55 3//55 9//55
f 9//56 3//56 30//56
f 33//55 31//55 26//55
f 26//56 31//56 33//56
f 33//56 26//56 31//56
f 31//55 26//55 33//55
f 34//69 32//69 11//69
f 11//70 32//70 34//70
f 11//70 32//70 34//70
f 34//69 32//69 11//69
f 28//71 29//71 35//71
f 35//72 29//72 28//72
f 28//72 35//72 29//72
f 29//71 35//71 28//71
f 30//73 33//73 26//73
f 26//74 33//74 30//74
f 26//74 33//74 30//74
f 30//73 33//73 26//73
f 36//56 30//56 3//56
f 3//55 30//55 36//55
f 36//55 3//55 30//55
f 30//56 3//56 36//56
f 37//55 31//55 33//55
f 33//56 31//56 37//56
f 37//56 33//56 31//56
f 31//55 33//55 37//55
f 34//75 38//75 32//75
f 32//76 38//76 34//76
f 34//76 32//76 38//76
f 38//75 32//75 34//75
f 29//77 31//77 35//77
f 35//78 31//78 29//78
f 29//78 35//78 31//78
f 31//77 35//77 29//77
f 30//73 36//73 33//73
f 33//74 36//74 30//74
f 30//74 33//74 36//74
f 36//73 33//73 30//73
f 36//56 3//56 39//56
f 39//55 3//55 36//55
f 36//55 39//55 3//55
f 3//56 39//56 36//56
f 37//55 40//55 31//55
f 31//56 40//56 37//56
f 37//56 31//56 40//56
f 40//55 31//55 37//55
f 33//79 41//79 37//79
f 37//80 41//80 33//80
f 33//80 37//80 41//80
f 41//79 37//79 33//79
f 34//81 42//81 38//81
f 38//82 42//82 34//82
f 34//82 38//82 42//82
f 42//81 38//81 34//81
f 31//83 43//83 35//83
f 35//84 43//84 31//84
f 35//84 43//84 31//84
f 31//83 43//83 35//83
f 36//79 41//79 33//79
f 33//80 41//80 36//80
f 33//80 41//80 36//80
f 36//79 41//79 33//79
f 41//56 36//56 39//56
f 39//55 36//55 41//55
f 41//55 39//55 36//55
f 36//56 39//56 41//56
f 37//55 44//55 40//55
f 40//56 44//56 37//56
f 37//56 40//56 44//56
f 44//55 40//55 37//55
f 37//18 41//18 45//18
f 45//17 41//17 37//17
f 37//17 45//17 41//17
f 41//18 45//18 37//18
f 46//85 42//85 34//85
f 34//86 42//86 46//86
f 46//86 34//86 42//86
f 42//85 34//85 46//85
f 35//87 43//87 46//87
f 46//88 43//88 35//88
f 35//88 46//88 43//88
f 43//87 46//87 35//87
f 41//56 39//56 47//56
f 47//55 39//55 41//55
f 41//55 47//55 39//55
f 39//56 47//56 41//56
f 37//55 48//55 44//55
f 44//56 48//56 37//56
f 37//56 44//56 48//56
f 48//55 44//55 37//55
f 41//56 47//56 45//56
f 45//55 47//55 41//55
f 41//55 45//55 47//55
f 47//56 45//56 41//56
f 37//18 45//18 48//18
f 48//17 45//17 37//17
f 48//17 45//17 37//17
f 37//18 45//18 48//18
f 43//89 42//89 46//89
f 46//90 42//90 43//90
f 43//90 46//90 42//90
f 42//89 46//89 43//89
