# SSTK version 0.8.0
# 3
mtllib original-3.mtl
o mesh3/mesh3-geometry#mesh3-geometry
v 0.019092 -0.802983 0.084662
v 0.014565 -0.618671 0.101557
v 0.019092 -0.618671 0.084662
v 0.014565 -0.802983 0.101557
v -0.048489 -0.618671 0.084662
v 0.014565 -0.802983 0.067767
v -0.031594 -0.802983 0.113926
v 0.002197 -0.618671 0.113926
v -0.043963 -0.618671 0.101557
v -0.043963 -0.618671 0.067767
v -0.048489 -0.802983 0.084662
v 0.014565 -0.618671 0.067767
v -0.043963 -0.802983 0.101557
v 0.002197 -0.802983 0.113926
v -0.031594 -0.618671 0.113926
v -0.043963 -0.802983 0.067767
v 0.002197 -0.802983 0.055398
v -0.014699 -0.802983 0.118453
v -0.014699 -0.618671 0.118453
v -0.031594 -0.618671 0.055398
v -0.031594 -0.802983 0.055398
v 0.002197 -0.618671 0.055398
v -0.014699 -0.802983 0.050872
v -0.014699 -0.618671 0.050872
vn -0.9659354514232771 0 -0.2587831209405083
vn 0.9659354514232771 0 0.2587831209405083
vn 0 -1 0
vn 0 1 0
vn -0.9659354514232771 0 0.2587831209405083
vn 0.9659354514232771 0 -0.2587831209405083
vn -0.7071067811865476 0 -0.7071067811865476
vn 0.7071067811865476 0 0.7071067811865476
vn -0.7071067811865476 0 0.7071067811865476
vn 0.7071067811865476 0 -0.7071067811865476
vn -0.2587831209405083 0 -0.9659354514232771
vn 0.2587831209405083 0 0.9659354514232771
vn 0.2587831209405083 0 -0.9659354514232771
vn -0.2587831209405083 0 0.9659354514232771
usemtl material_0_0
f 1//1 2//1 3//1
f 3//2 2//2 1//2
f 3//2 2//2 1//2
f 1//1 2//1 3//1
f 1//1 4//1 2//1
f 2//2 4//2 1//2
f 1//2 2//2 4//2
f 4//1 2//1 1//1
f 3//3 2//3 5//3
f 5//4 2//4 3//4
f 3//4 5//4 2//4
f 2//3 5//3 3//3
f 6//5 1//5 3//5
f 3//6 1//6 6//6
f 6//6 3//6 1//6
f 1//5 3//5 6//5
f 1//4 7//4 4//4
f 4//3 7//3 1//3
f 1//3 4//3 7//3
f 7//4 4//4 1//4
f 4//7 8//7 2//7
f 2//8 8//8 4//8
f 2//8 8//8 4//8
f 4//7 8//7 2//7
f 2//3 9//3 5//3
f 5//4 9//4 2//4
f 2//4 5//4 9//4
f 9//3 5//3 2//3
f 3//3 5//3 10//3
f 10//4 5//4 3//4
f 3//4 10//4 5//4
f 5//3 10//3 3//3
f 1//4 6//4 11//4
f 11//3 6//3 1//3
f 1//3 11//3 6//3
f 6//4 11//4 1//4
f 6//5 3//5 12//5
f 12//6 3//6 6//6
f 12//6 3//6 6//6
f 6//5 3//5 12//5
f 1//4 13//4 7//4
f 7//3 13//3 1//3
f 1//3 7//3 13//3
f 13//4 7//4 1//4
f 4//4 7//4 14//4
f 14//3 7//3 4//3
f 4//3 14//3 7//3
f 7//4 14//4 4//4
f 4//7 14//7 8//7
f 8//8 14//8 4//8
f 4//8 8//8 14//8
f 14//7 8//7 4//7
f 2//3 8//3 15//3
f 15//4 8//4 2//4
f 2//4 15//4 8//4
f 8//3 15//3 2//3
f 2//3 15//3 9//3
f 9//4 15//4 2//4
f 2//4 9//4 15//4
f 15//3 9//3 2//3
f 5//6 9//6 13//6
f 13//5 9//5 5//5
f 5//5 13//5 9//5
f 9//6 13//6 5//6
f 10//2 5//2 11//2
f 11//1 5//1 10//1
f 10//1 11//1 5//1
f 5//2 11//2 10//2
f 3//3 10//3 12//3
f 12//4 10//4 3//4
f 3//4 12//4 10//4
f 10//3 12//3 3//3
f 6//4 16//4 11//4
f 11//3 16//3 6//3
f 6//3 11//3 16//3
f 16//4 11//4 6//4
f 1//4 11//4 13//4
f 13//3 11//3 1//3
f 1//3 13//3 11//3
f 11//4 13//4 1//4
f 17//9 6//9 12//9
f 12//10 6//10 17//10
f 17//10 12//10 6//10
f 6//9 12//9 17//9
f 9//10 7//10 13//10
f 13//9 7//9 9//9
f 13//9 7//9 9//9
f 9//10 7//10 13//10
f 14//4 7//4 18//4
f 18//3 7//3 14//3
f 14//3 18//3 7//3
f 7//4 18//4 14//4
f 8//11 14//11 19//11
f 19//12 14//12 8//12
f 19//12 14//12 8//12
f 8//11 14//11 19//11
f 8//3 19//3 15//3
f 15//4 19//4 8//4
f 8//4 15//4 19//4
f 19//3 15//3 8//3
f 9//10 15//10 7//10
f 7//9 15//9 9//9
f 9//9 7//9 15//9
f 15//10 7//10 9//10
f 5//6 13//6 11//6
f 11//5 13//5 5//5
f 11//5 13//5 5//5
f 5//6 13//6 11//6
f 10//2 11//2 16//2
f 16//1 11//1 10//1
f 16//1 11//1 10//1
f 10//2 11//2 16//2
f 12//3 10//3 20//3
f 20//4 10//4 12//4
f 12//4 20//4 10//4
f 10//3 20//3 12//3
f 6//4 21//4 16//4
f 16//3 21//3 6//3
f 6//3 16//3 21//3
f 21//4 16//4 6//4
f 6//4 17//4 21//4
f 21//3 17//3 6//3
f 6//3 21//3 17//3
f 17//4 21//4 6//4
f 17//9 12//9 22//9
f 22//10 12//10 17//10
f 22//10 12//10 17//10
f 17//9 12//9 22//9
f 15//13 18//13 7//13
f 7//14 18//14 15//14
f 15//14 7//14 18//14
f 18//13 7//13 15//13
f 19//11 14//11 18//11
f 18//12 14//12 19//12
f 19//12 18//12 14//12
f 14//11 18//11 19//11
f 19//13 18//13 15//13
f 15//14 18//14 19//14
f 15//14 18//14 19//14
f 19//13 18//13 15//13
f 20//8 10//8 16//8
f 16//7 10//7 20//7
f 20//7 16//7 10//7
f 10//8 16//8 20//8
f 12//3 20//3 22//3
f 22//4 20//4 12//4
f 12//4 22//4 20//4
f 20//3 22//3 12//3
f 20//8 16//8 21//8
f 21//7 16//7 20//7
f 21//7 16//7 20//7
f 20//8 16//8 21//8
f 17//4 23//4 21//4
f 21//3 23//3 17//3
f 17//3 21//3 23//3
f 23//4 21//4 17//4
f 22//14 23//14 17//14
f 17//13 23//13 22//13
f 22//13 17//13 23//13
f 23//14 17//14 22//14
f 22//3 20//3 24//3
f 24//4 20//4 22//4
f 22//4 24//4 20//4
f 20//3 24//3 22//3
f 20//12 21//12 24//12
f 24//11 21//11 20//11
f 24//11 21//11 20//11
f 20//12 21//12 24//12
f 24//12 21//12 23//12
f 23//11 21//11 24//11
f 24//11 23//11 21//11
f 21//12 23//12 24//12
f 24//14 23//14 22//14
f 22//13 23//13 24//13
f 22//13 23//13 24//13
f 24//14 23//14 22//14
