# SSTK version 0.8.0
# 10
mtllib original-10.mtl
o mesh10/mesh10-geometry#mesh10-geometry
v -0.094567 -0.115024 0.048506
v -0.094567 -0.197921 0.270085
v -0.094567 -0.144609 0.276989
v -0.094567 -0.168336 0.041602
v -0.122214 -0.197921 0.270085
v -0.122214 -0.144609 0.276989
v -0.089751 -0.111515 0.021415
v -0.122214 -0.099243 -0.073352
v -0.122214 -0.152557 -0.080254
v -0.089751 -0.164828 0.014513
v -0.075881 -0.108430 -0.002407
v -0.093799 -0.091355 -0.134281
v -0.093799 -0.144667 -0.141183
v -0.075881 -0.161744 -0.009311
v -0.054633 -0.106141 -0.020090
v -0.093799 -0.123957 -0.301122
v -0.054633 -0.159454 -0.026993
v -0.028568 -0.104922 -0.029498
v -0.093799 -0.070644 -0.294218
v -0.028568 -0.158236 -0.036402
v -0.079976 -0.063742 -0.347530
v -0.079976 -0.117054 -0.354434
v -0.000829 -0.158236 -0.036402
v -0.000829 -0.104922 -0.029498
v 0.050579 -0.117054 -0.354434
v 0.050579 -0.063742 -0.347530
v 0.064402 -0.123957 -0.301122
v 0.025236 -0.159454 -0.026993
v 0.064402 -0.070644 -0.294218
v 0.064402 -0.144667 -0.141183
v 0.025236 -0.106141 -0.020090
v 0.064402 -0.091355 -0.134281
v 0.046484 -0.161744 -0.009311
v 0.092817 -0.099243 -0.073352
v 0.046484 -0.108430 -0.002407
v 0.060353 -0.164828 0.014513
v 0.092817 -0.152557 -0.080254
v 0.060353 -0.111515 0.021415
v 0.092817 -0.197921 0.270085
v 0.065170 -0.115024 0.048506
v 0.065170 -0.168336 0.041602
v 0.092817 -0.144609 0.276989
v 0.065170 -0.197921 0.270085
v 0.065170 -0.144609 0.276989
vn -1 0 0
vn 1 0 0
vn 0 0.12842896256283465 -0.9917187109130461
vn 0 -0.12842896256283465 0.9917187109130461
vn 0 -0.9917207816181492 -0.1284129717228249
vn 0 0.9917207816181492 0.1284129717228249
vn 0 0.9917206542678934 0.12841395523252758
vn 0 -0.9917206542678934 -0.12841395523252758
vn -0.9848079649674268 0.022300999206686607 -0.17220899387400956
vn 0.9848079649674268 -0.022300999206686607 0.17220899387400956
vn -0.00003200000823499518 -0.9917202552127944 -0.1284170330472932
vn 0.00003200000823499518 0.9917202552127944 0.1284170330472932
vn -9.99999779794573e-7 0.9917207816176535 0.1284129717227607
vn 9.99999779794573e-7 -0.9917207816176535 -0.1284129717227607
vn -0.9848062745635353 0.02229800621667389 -0.1722190480145912
vn 0.9848062745635353 -0.02229800621667389 0.1722190480145912
vn -0.000009999996157082214 -0.9917196188901574 -0.12842195064848144
vn 0.000009999996157082214 0.9917196188901574 0.12842195064848144
vn -0.00003599999076713755 0.991719745655157 0.12842096706407166
vn 0.00003599999076713755 -0.991719745655157 -0.12842096706407166
vn -0.8660138962662636 0.06420299230957353 -0.49588094060189686
vn 0.8660138962662636 -0.06420299230957353 0.49588094060189686
vn -0.00003199998471857095 -0.9917205264089344 -0.12841493867610299
vn 0.00003199998471857095 0.9917205264089344 0.12841493867610299
vn -0.00002000000772144447 0.9917203828755455 0.12841604957785088
vn 0.00002000000772144447 -0.9917203828755455 -0.12841604957785088
vn 0.9076279530806279 -0.053897997213770144 0.41630097847952957
vn -0.9076279530806279 0.053897997213770144 -0.41630097847952957
vn -0.8660257878557509 0.06421298427019678 -0.4958588785329364
vn 0.8660257878557509 -0.06421298427019678 0.4958588785329364
vn 0.00006900001762778175 -0.991720253359764 -0.12841703280734584
vn -0.00006900001762778175 0.991720253359764 0.12841703280734584
vn 0.9076273011811941 -0.05390001788583465 0.4163021381430185
vn -0.9076273011811941 0.05390001788583465 -0.4163021381430185
vn 0.00005099998215414037 0.9917206529781616 0.12841395506552536
vn -0.00005099998215414037 -0.9917206529781616 -0.12841395506552536
vn -0.642817270677232 0.09837604142414325 -0.7596763198841925
vn 0.642817270677232 -0.09837604142414325 0.7596763198841925
vn -0.00004500000897946019 -0.9917221978917381 -0.12840202562179237
vn 0.00004500000897946019 0.9917221978917381 0.12840202562179237
vn -0.00001800000862008019 0.9917194749276281 0.12842306150092014
vn 0.00001800000862008019 -0.9917194749276281 -0.12842306150092014
vn -0.6427890920326205 0.09836101408303609 -0.7597021087718765
vn 0.6427890920326205 -0.09836101408303609 0.7597021087718765
vn 0.00004700000871328543 -0.9917181838536595 -0.1284330238100723
vn -0.00004700000871328543 0.9917181838536595 0.1284330238100723
vn 0.0000040000005177201 0.9917201283583443 0.12841801662114516
vn -0.0000040000005177201 -0.9917201283583443 -0.12841801662114516
vn 0.000012999997136237444 0.9917207815343488 0.128412971711974
vn -0.000012999997136237444 -0.9917207815343488 -0.128412971711974
vn -0.34200488724288824 0.12065796021974089 -0.9319196927512534
vn 0.34200488724288824 -0.12065796021974089 0.9319196927512534
vn 0.00002499999680718811 -0.9917198733449838 -0.12841998359916412
vn -0.00002499999680718811 0.9917198733449838 0.12841998359916412
vn 0.9684925565347227 -0.03198401837930166 0.24698014192470957
vn -0.9684925565347227 0.03198401837930166 -0.24698014192470957
vn 0.00003600000129495607 0.991721035673198 0.12841100461907254
vn -0.00003600000129495607 -0.991721035673198 -0.12841100461907254
vn -0.34204684456471385 0.12067894516024165 -0.9319015765188585
vn 0.34204684456471385 -0.12067894516024165 0.9319015765188585
vn -0.00002599998851309061 -0.991721561853048 -0.12840694326924737
vn 0.00002599998851309061 0.991721561853048 0.12840694326924737
vn 0.9684923173357606 -0.03198401047986666 0.24698108092571078
vn -0.9684923173357606 0.03198401047986666 -0.24698108092571078
vn 0 0.9917203830738898 0.12841604960353412
vn 0 -0.9917203830738898 -0.12841604960353412
vn 0 0.12842601204398485 -0.9917190930049086
vn 0 -0.12842601204398485 0.9917190930049086
vn 0 -0.9917210363158333 -0.1284110047022829
vn 0 0.9917210363158333 0.1284110047022829
vn -0.00003600000129495607 0.991721035673198 0.12841100461907254
vn 0.00003600000129495607 -0.991721035673198 -0.12841100461907254
vn 0.34204684456471385 0.12067894516024165 -0.9319015765188585
vn -0.34204684456471385 -0.12067894516024165 0.9319015765188585
vn 0.00002599998851309061 -0.991721561853048 -0.12840694326924737
vn -0.00002599998851309061 0.991721561853048 0.12840694326924737
vn -0.9684923173357606 -0.03198401047986666 0.24698108092571078
vn 0.9684923173357606 0.03198401047986666 -0.24698108092571078
vn -0.0000040000005177201 0.9917201283583443 0.12841801662114516
vn 0.0000040000005177201 -0.9917201283583443 -0.12841801662114516
vn 0.34200488724288824 0.12065796021974089 -0.9319196927512534
vn -0.34200488724288824 -0.12065796021974089 0.9319196927512534
vn -0.000012999997136237444 0.9917207815343488 0.128412971711974
vn 0.000012999997136237444 -0.9917207815343488 -0.128412971711974
vn -0.00002499999680718811 -0.9917198733449838 -0.12841998359916412
vn 0.00002499999680718811 0.9917198733449838 0.12841998359916412
vn -0.9684925565347227 -0.03198401837930166 0.24698014192470957
vn 0.9684925565347227 0.03198401837930166 -0.24698014192470957
vn -0.00004700000871328543 -0.9917181838536595 -0.1284330238100723
vn 0.00004700000871328543 0.9917181838536595 0.1284330238100723
vn 0.6427890920326205 0.09836101408303609 -0.7597021087718765
vn -0.6427890920326205 -0.09836101408303609 0.7597021087718765
vn 0.00001800000862008019 0.9917194749276281 0.12842306150092014
vn -0.00001800000862008019 -0.9917194749276281 -0.12842306150092014
vn -0.9076273011811941 -0.05390001788583465 0.4163021381430185
vn 0.9076273011811941 0.05390001788583465 -0.4163021381430185
vn 0.00004500000897946019 -0.9917221978917381 -0.12840202562179237
vn -0.00004500000897946019 0.9917221978917381 0.12840202562179237
vn 0.642817270677232 0.09837604142414325 -0.7596763198841925
vn -0.642817270677232 -0.09837604142414325 0.7596763198841925
vn -0.00005099998215414037 0.9917206529781616 0.12841395506552536
vn 0.00005099998215414037 -0.9917206529781616 -0.12841395506552536
vn -0.9076279530806279 -0.053897997213770144 0.41630097847952957
vn 0.9076279530806279 0.053897997213770144 -0.41630097847952957
vn 0.00003199998471857095 -0.9917205264089344 -0.12841493867610299
vn -0.00003199998471857095 0.9917205264089344 0.12841493867610299
vn -0.00006900001762778175 -0.991720253359764 -0.12841703280734584
vn 0.00006900001762778175 0.991720253359764 0.12841703280734584
vn 0.8660257878557509 0.06421298427019678 -0.4958588785329364
vn -0.8660257878557509 -0.06421298427019678 0.4958588785329364
vn 0.00002000000772144447 0.9917203828755455 0.12841604957785088
vn -0.00002000000772144447 -0.9917203828755455 -0.12841604957785088
vn 0.000009999996157082214 -0.9917196188901574 -0.12842195064848144
vn -0.000009999996157082214 0.9917196188901574 0.12842195064848144
vn 0.8660138962662636 0.06420299230957353 -0.49588094060189686
vn -0.8660138962662636 -0.06420299230957353 0.49588094060189686
vn 0.00003599999076713755 0.991719745655157 0.12842096706407166
vn -0.00003599999076713755 -0.991719745655157 -0.12842096706407166
vn 9.99999779794573e-7 0.9917207816176535 0.1284129717227607
vn -9.99999779794573e-7 -0.9917207816176535 -0.1284129717227607
vn 0.00003200000823499518 -0.9917202552127944 -0.1284170330472932
vn -0.00003200000823499518 0.9917202552127944 0.1284170330472932
vn 0.9848079649674268 0.022300999206686607 -0.17220899387400956
vn -0.9848079649674268 -0.022300999206686607 0.17220899387400956
vn 0.9848062745635353 0.02229800621667389 -0.1722190480145912
vn -0.9848062745635353 -0.02229800621667389 0.1722190480145912
usemtl material_0_0
f 1//1 2//1 3//1
f 3//2 2//2 1//2
f 1//2 3//2 2//2
f 2//1 3//1 1//1
f 4//1 2//1 1//1
f 1//2 2//2 4//2
f 4//2 1//2 2//2
f 2//1 1//1 4//1
f 3//3 2//3 5//3
f 5//4 2//4 3//4
f 3//4 5//4 2//4
f 2//3 5//3 3//3
f 3//5 6//5 1//5
f 1//6 6//6 3//6
f 1//6 6//6 3//6
f 3//5 6//5 1//5
f 4//7 5//7 2//7
f 2//8 5//8 4//8
f 2//8 5//8 4//8
f 4//7 5//7 2//7
f 7//9 4//9 1//9
f 1//10 4//10 7//10
f 7//10 1//10 4//10
f 4//9 1//9 7//9
f 3//3 5//3 6//3
f 6//4 5//4 3//4
f 6//4 5//4 3//4
f 3//3 5//3 6//3
f 1//11 6//11 8//11
f 8//12 6//12 1//12
f 1//12 8//12 6//12
f 6//11 8//11 1//11
f 4//13 9//13 5//13
f 5//14 9//14 4//14
f 4//14 5//14 9//14
f 9//13 5//13 4//13
f 10//15 4//15 7//15
f 7//16 4//16 10//16
f 10//16 7//16 4//16
f 4//15 7//15 10//15
f 7//17 1//17 8//17
f 8//18 1//18 7//18
f 7//18 8//18 1//18
f 1//17 8//17 7//17
f 8//2 6//2 5//2
f 5//1 6//1 8//1
f 8//1 5//1 6//1
f 6//2 5//2 8//2
f 10//19 9//19 4//19
f 4//20 9//20 10//20
f 10//20 4//20 9//20
f 9//19 4//19 10//19
f 9//2 8//2 5//2
f 5//1 8//1 9//1
f 9//1 5//1 8//1
f 8//2 5//2 9//2
f 11//21 10//21 7//21
f 7//22 10//22 11//22
f 11//22 7//22 10//22
f 10//21 7//21 11//21
f 7//23 8//23 12//23
f 12//24 8//24 7//24
f 7//24 12//24 8//24
f 8//23 12//23 7//23
f 10//25 13//25 9//25
f 9//26 13//26 10//26
f 10//26 9//26 13//26
f 13//25 9//25 10//25
f 13//27 8//27 9//27
f 9//28 8//28 13//28
f 13//28 9//28 8//28
f 8//27 9//27 13//27
f 14//29 10//29 11//29
f 11//30 10//30 14//30
f 14//30 11//30 10//30
f 10//29 11//29 14//29
f 11//31 7//31 12//31
f 12//32 7//32 11//32
f 11//32 12//32 7//32
f 7//31 12//31 11//31
f 13//33 12//33 8//33
f 8//34 12//34 13//34
f 13//34 8//34 12//34
f 12//33 8//33 13//33
f 14//35 13//35 10//35
f 10//36 13//36 14//36
f 14//36 10//36 13//36
f 13//35 10//35 14//35
f 15//37 14//37 11//37
f 11//38 14//38 15//38
f 15//38 11//38 14//38
f 14//37 11//37 15//37
f 15//39 11//39 12//39
f 12//40 11//40 15//40
f 15//40 12//40 11//40
f 11//39 12//39 15//39
f 16//2 12//2 13//2
f 13//1 12//1 16//1
f 16//1 13//1 12//1
f 12//2 13//2 16//2
f 17//41 13//41 14//41
f 14//42 13//42 17//42
f 17//42 14//42 13//42
f 13//41 14//41 17//41
f 15//43 17//43 14//43
f 14//44 17//44 15//44
f 15//44 14//44 17//44
f 17//43 14//43 15//43
f 18//45 15//45 12//45
f 12//46 15//46 18//46
f 18//46 12//46 15//46
f 15//45 12//45 18//45
f 16//2 19//2 12//2
f 12//1 19//1 16//1
f 16//1 12//1 19//1
f 19//2 12//2 16//2
f 20//47 16//47 13//47
f 13//48 16//48 20//48
f 20//48 13//48 16//48
f 16//47 13//47 20//47
f 20//49 13//49 17//49
f 17//50 13//50 20//50
f 20//50 17//50 13//50
f 13//49 17//49 20//49
f 18//51 17//51 15//51
f 15//52 17//52 18//52
f 18//52 15//52 17//52
f 17//51 15//51 18//51
f 18//53 12//53 19//53
f 19//54 12//54 18//54
f 18//54 19//54 12//54
f 12//53 19//53 18//53
f 21//55 19//55 16//55
f 16//56 19//56 21//56
f 21//56 16//56 19//56
f 19//55 16//55 21//55
f 20//57 22//57 16//57
f 16//58 22//58 20//58
f 20//58 16//58 22//58
f 22//57 16//57 20//57
f 18//59 20//59 17//59
f 17//60 20//60 18//60
f 18//60 17//60 20//60
f 20//59 17//59 18//59
f 18//61 19//61 21//61
f 21//62 19//62 18//62
f 18//62 21//62 19//62
f 19//61 21//61 18//61
f 22//63 21//63 16//63
f 16//64 21//64 22//64
f 22//64 16//64 21//64
f 21//63 16//63 22//63
f 23//65 22//65 20//65
f 20//66 22//66 23//66
f 23//66 20//66 22//66
f 22//65 20//65 23//65
f 18//67 23//67 20//67
f 20//68 23//68 18//68
f 18//68 20//68 23//68
f 23//67 20//67 18//67
f 24//69 18//69 21//69
f 21//70 18//70 24//70
f 24//70 21//70 18//70
f 18//69 21//69 24//69
f 21//4 22//4 25//4
f 25//3 22//3 21//3
f 21//3 25//3 22//3
f 22//4 25//4 21//4
f 25//65 22//65 23//65
f 23//66 22//66 25//66
f 25//66 23//66 22//66
f 22//65 23//65 25//65
f 24//67 23//67 18//67
f 18//68 23//68 24//68
f 18//68 23//68 24//68
f 24//67 23//67 18//67
f 26//69 24//69 21//69
f 21//70 24//70 26//70
f 26//70 21//70 24//70
f 24//69 21//69 26//69
f 21//4 25//4 26//4
f 26//3 25//3 21//3
f 26//3 25//3 21//3
f 21//4 25//4 26//4
f 27//71 25//71 23//71
f 23//72 25//72 27//72
f 27//72 23//72 25//72
f 25//71 23//71 27//71
f 24//73 28//73 23//73
f 23//74 28//74 24//74
f 24//74 23//74 28//74
f 28//73 23//73 24//73
f 29//75 24//75 26//75
f 26//76 24//76 29//76
f 29//76 26//76 24//76
f 24//75 26//75 29//75
f 25//77 27//77 26//77
f 26//78 27//78 25//78
f 25//78 26//78 27//78
f 27//77 26//77 25//77
f 27//79 23//79 30//79
f 30//80 23//80 27//80
f 30//80 23//80 27//80
f 27//79 23//79 30//79
f 24//81 31//81 28//81
f 28//82 31//82 24//82
f 24//82 28//82 31//82
f 31//81 28//81 24//81
f 30//83 23//83 28//83
f 28//84 23//84 30//84
f 30//84 28//84 23//84
f 23//83 28//83 30//83
f 32//85 24//85 29//85
f 29//86 24//86 32//86
f 29//86 24//86 32//86
f 32//85 24//85 29//85
f 26//87 27//87 29//87
f 29//88 27//88 26//88
f 26//88 29//88 27//88
f 27//87 29//87 26//87
f 27//1 30//1 32//1
f 32//2 30//2 27//2
f 27//2 32//2 30//2
f 30//1 32//1 27//1
f 32//89 31//89 24//89
f 24//90 31//90 32//90
f 32//90 24//90 31//90
f 31//89 24//89 32//89
f 31//91 33//91 28//91
f 28//92 33//92 31//92
f 31//92 28//92 33//92
f 33//91 28//91 31//91
f 30//93 28//93 33//93
f 33//94 28//94 30//94
f 30//94 33//94 28//94
f 28//93 33//93 30//93
f 27//1 32//1 29//1
f 29//2 32//2 27//2
f 27//2 29//2 32//2
f 32//1 29//1 27//1
f 30//95 34//95 32//95
f 32//96 34//96 30//96
f 30//96 32//96 34//96
f 34//95 32//95 30//95
f 32//97 35//97 31//97
f 31//98 35//98 32//98
f 32//98 31//98 35//98
f 35//97 31//97 32//97
f 31//99 35//99 33//99
f 33//100 35//100 31//100
f 31//100 33//100 35//100
f 35//99 33//99 31//99
f 30//101 33//101 36//101
f 36//102 33//102 30//102
f 30//102 36//102 33//102
f 33//101 36//101 30//101
f 30//103 37//103 34//103
f 34//104 37//104 30//104
f 30//104 34//104 37//104
f 37//103 34//103 30//103
f 34//105 38//105 32//105
f 32//106 38//106 34//106
f 34//106 32//106 38//106
f 38//105 32//105 34//105
f 32//107 38//107 35//107
f 35//108 38//108 32//108
f 32//108 35//108 38//108
f 38//107 35//107 32//107
f 33//109 35//109 36//109
f 36//110 35//110 33//110
f 33//110 36//110 35//110
f 35//109 36//109 33//109
f 37//111 30//111 36//111
f 36//112 30//112 37//112
f 37//112 36//112 30//112
f 30//111 36//111 37//111
f 37//1 39//1 34//1
f 34//2 39//2 37//2
f 37//2 34//2 39//2
f 39//1 34//1 37//1
f 34//113 40//113 38//113
f 38//114 40//114 34//114
f 34//114 38//114 40//114
f 40//113 38//113 34//113
f 35//115 38//115 36//115
f 36//116 38//116 35//116
f 35//116 36//116 38//116
f 38//115 36//115 35//115
f 37//117 36//117 41//117
f 41//118 36//118 37//118
f 37//118 41//118 36//118
f 36//117 41//117 37//117
f 37//119 41//119 39//119
f 39//120 41//120 37//120
f 39//120 41//120 37//120
f 37//119 41//119 39//119
f 34//1 39//1 42//1
f 42//2 39//2 34//2
f 34//2 42//2 39//2
f 39//1 42//1 34//1
f 42//121 40//121 34//121
f 34//122 40//122 42//122
f 34//122 40//122 42//122
f 42//121 40//121 34//121
f 38//123 40//123 41//123
f 41//124 40//124 38//124
f 38//124 41//124 40//124
f 40//123 41//123 38//123
f 36//125 38//125 41//125
f 41//126 38//126 36//126
f 36//126 41//126 38//126
f 38//125 41//125 36//125
f 39//7 41//7 43//7
f 43//8 41//8 39//8
f 39//8 43//8 41//8
f 41//7 43//7 39//7
f 42//3 39//3 43//3
f 43//4 39//4 42//4
f 42//4 43//4 39//4
f 39//3 43//3 42//3
f 42//5 44//5 40//5
f 40//6 44//6 42//6
f 42//6 40//6 44//6
f 44//5 40//5 42//5
f 41//2 40//2 43//2
f 43//1 40//1 41//1
f 41//1 43//1 40//1
f 40//2 43//2 41//2
f 42//3 43//3 44//3
f 44//4 43//4 42//4
f 44//4 43//4 42//4
f 42//3 43//3 44//3
f 40//2 44//2 43//2
f 43//1 44//1 40//1
f 40//1 43//1 44//1
f 44//2 43//2 40//2
