# SSTK version 0.8.0
# 23
mtllib original-23.mtl
o mesh23/mesh23-geometry#mesh23-geometry
v 0.329044 -0.758169 -0.334929
v 0.329044 -0.778136 -0.329580
v 0.307541 -0.758169 -0.334929
v 0.329044 -0.758169 -0.404099
v 0.307541 -0.778136 -0.329580
v 0.307541 -0.743551 -0.349547
v 0.329044 -0.778136 -0.409448
v 0.329044 -0.743551 -0.389481
v 0.329044 -0.798103 -0.334929
v 0.307541 -0.738202 -0.369514
v 0.329044 -0.743551 -0.349547
v 0.307541 -0.778136 -0.409448
v 0.307541 -0.758169 -0.404099
v 0.307541 -0.798103 -0.334929
v 0.307541 -0.743551 -0.389481
v 0.329044 -0.798103 -0.404099
v 0.307541 -0.798103 -0.404099
v 0.329044 -0.738202 -0.369514
v 0.329044 -0.812721 -0.349547
v 0.307541 -0.812721 -0.389481
v 0.329044 -0.812721 -0.389481
v 0.307541 -0.812721 -0.349547
v 0.307541 -0.818070 -0.369514
v 0.329044 -0.818070 -0.369514
vn 0 -0.2587950672027469 -0.9659322508289727
vn 0 0.2587950672027469 0.9659322508289727
vn -1 0 0
vn 1 0 0
vn 0 -0.7071072811865695 -0.707106281186172
vn 0 0.7071072811865695 0.707106281186172
vn 0 0.2587950672027474 -0.9659322508289727
vn 0 -0.2587950672027474 0.9659322508289727
vn 0 -0.7071072811865697 0.7071062811861718
vn 0 0.7071072811865697 -0.7071062811861718
vn 0 -0.9659322508289727 -0.2587950672027474
vn 0 0.9659322508289727 0.2587950672027474
vn 0 -0.9659320008500204 0.2587960002277403
vn 0 0.9659320008500204 -0.2587960002277403
vn 0 0.9659322508289727 -0.2587950672027469
vn 0 -0.9659322508289727 0.2587950672027469
vn 0 0.9659320008500202 0.25879600022774074
vn 0 -0.9659320008500202 -0.25879600022774074
usemtl material_0_0
f 1//1 2//1 3//1
f 3//2 2//2 1//2
f 3//2 2//2 1//2
f 1//1 2//1 3//1
f 4//3 2//3 1//3
f 1//4 2//4 4//4
f 4//4 1//4 2//4
f 2//3 1//3 4//3
f 3//1 2//1 5//1
f 5//2 2//2 3//2
f 3//2 5//2 2//2
f 2//1 5//1 3//1
f 1//5 3//5 6//5
f 6//6 3//6 1//6
f 1//6 6//6 3//6
f 3//5 6//5 1//5
f 7//3 2//3 4//3
f 4//4 2//4 7//4
f 7//4 4//4 2//4
f 2//3 4//3 7//3
f 4//3 1//3 8//3
f 8//4 1//4 4//4
f 4//4 8//4 1//4
f 1//3 8//3 4//3
f 2//7 9//7 5//7
f 5//8 9//8 2//8
f 5//8 9//8 2//8
f 2//7 9//7 5//7
f 10//4 3//4 5//4
f 5//3 3//3 10//3
f 10//3 5//3 3//3
f 3//4 5//4 10//4
f 10//4 6//4 3//4
f 3//3 6//3 10//3
f 10//3 3//3 6//3
f 6//4 3//4 10//4
f 1//5 6//5 11//5
f 11//6 6//6 1//6
f 11//6 6//6 1//6
f 1//5 6//5 11//5
f 7//3 9//3 2//3
f 2//4 9//4 7//4
f 7//4 2//4 9//4
f 9//3 2//3 7//3
f 4//8 12//8 7//8
f 7//7 12//7 4//7
f 4//7 7//7 12//7
f 12//8 7//8 4//8
f 8//3 1//3 11//3
f 11//4 1//4 8//4
f 8//4 11//4 1//4
f 1//3 11//3 8//3
f 8//9 13//9 4//9
f 4//10 13//10 8//10
f 4//10 13//10 8//10
f 8//9 13//9 4//9
f 5//7 9//7 14//7
f 14//8 9//8 5//8
f 5//8 14//8 9//8
f 9//7 14//7 5//7
f 15//4 10//4 5//4
f 5//3 10//3 15//3
f 15//3 5//3 10//3
f 10//4 5//4 15//4
f 11//11 6//11 10//11
f 10//12 6//12 11//12
f 11//12 10//12 6//12
f 6//11 10//11 11//11
f 7//3 16//3 9//3
f 9//4 16//4 7//4
f 7//4 9//4 16//4
f 16//3 9//3 7//3
f 13//8 12//8 4//8
f 4//7 12//7 13//7
f 4//7 12//7 13//7
f 13//8 12//8 4//8
f 12//2 17//2 7//2
f 7//1 17//1 12//1
f 7//1 17//1 12//1
f 12//2 17//2 7//2
f 8//3 11//3 18//3
f 18//4 11//4 8//4
f 8//4 18//4 11//4
f 11//3 18//3 8//3
f 8//9 15//9 13//9
f 13//10 15//10 8//10
f 8//10 13//10 15//10
f 15//9 13//9 8//9
f 19//10 14//10 9//10
f 9//9 14//9 19//9
f 9//9 14//9 19//9
f 19//10 14//10 9//10
f 20//4 5//4 14//4
f 14//3 5//3 20//3
f 20//3 14//3 5//3
f 5//4 14//4 20//4
f 18//13 10//13 15//13
f 15//14 10//14 18//14
f 18//14 15//14 10//14
f 10//13 15//13 18//13
f 13//4 15//4 5//4
f 5//3 15//3 13//3
f 13//3 5//3 15//3
f 15//4 5//4 13//4
f 11//11 10//11 18//11
f 18//12 10//12 11//12
f 18//12 10//12 11//12
f 11//11 10//11 18//11
f 7//2 17//2 16//2
f 16//1 17//1 7//1
f 7//1 16//1 17//1
f 17//2 16//2 7//2
f 16//3 21//3 9//3
f 9//4 21//4 16//4
f 16//4 9//4 21//4
f 21//3 9//3 16//3
f 12//4 13//4 5//4
f 5//3 13//3 12//3
f 12//3 5//3 13//3
f 13//4 5//4 12//4
f 12//4 5//4 17//4
f 17//3 5//3 12//3
f 12//3 17//3 5//3
f 5//4 17//4 12//4
f 18//13 15//13 8//13
f 8//14 15//14 18//14
f 8//14 15//14 18//14
f 18//13 15//13 8//13
f 19//10 22//10 14//10
f 14//9 22//9 19//9
f 19//9 14//9 22//9
f 22//10 14//10 19//10
f 21//3 19//3 9//3
f 9//4 19//4 21//4
f 21//4 9//4 19//4
f 19//3 9//3 21//3
f 17//4 5//4 20//4
f 20//3 5//3 17//3
f 17//3 20//3 5//3
f 5//4 20//4 17//4
f 20//4 14//4 23//4
f 23//3 14//3 20//3
f 20//3 23//3 14//3
f 14//4 23//4 20//4
f 16//6 17//6 20//6
f 20//5 17//5 16//5
f 16//5 20//5 17//5
f 17//6 20//6 16//6
f 16//6 20//6 21//6
f 21//5 20//5 16//5
f 21//5 20//5 16//5
f 16//6 20//6 21//6
f 24//15 22//15 19//15
f 19//16 22//16 24//16
f 19//16 22//16 24//16
f 24//15 22//15 19//15
f 23//4 14//4 22//4
f 22//3 14//3 23//3
f 23//3 22//3 14//3
f 14//4 22//4 23//4
f 21//3 24//3 19//3
f 19//4 24//4 21//4
f 21//4 19//4 24//4
f 24//3 19//3 21//3
f 21//17 20//17 23//17
f 23//18 20//18 21//18
f 21//18 23//18 20//18
f 20//17 23//17 21//17
f 24//15 23//15 22//15
f 22//16 23//16 24//16
f 24//16 22//16 23//16
f 23//15 22//15 24//15
f 21//17 23//17 24//17
f 24//18 23//18 21//18
f 24//18 23//18 21//18
f 21//17 23//17 24//17
