# SSTK version 0.8.0
# 6
mtllib original-6.mtl
o mesh6/mesh6-geometry#mesh6-geometry
v 0.190634 -0.107521 0.410927
v 0.204462 -0.093608 0.468525
v 0.189092 -0.109072 0.442355
v 0.206656 -0.091402 0.410927
v 0.193450 -0.113403 0.436341
v 0.190634 -0.107521 0.372529
v 0.210052 -0.087985 0.468525
v 0.158191 -0.091402 0.410927
v 0.212353 -0.094385 0.468525
v 0.193450 -0.113403 0.347117
v 0.158191 -0.115707 0.410927
v 0.189092 -0.109072 0.341102
v 0.206656 -0.091402 0.372529
v 0.158191 -0.091402 0.372529
v 0.212353 -0.094385 0.314931
v 0.158191 -0.115707 0.372529
v 0.204462 -0.093608 0.314931
v 0.210052 -0.087985 0.314931
v 0.264362 -0.093332 0.468525
v 0.260857 -0.099160 0.314931
v 0.260857 -0.099160 0.468525
v 0.264362 -0.093332 0.314931
v 0.268747 -0.099938 0.468525
v 0.268747 -0.099938 0.314931
v 0.275687 -0.121499 0.347117
v 0.275687 -0.121499 0.436341
v 0.280806 -0.118102 0.442355
v 0.280806 -0.118102 0.341102
vn 0.709247529368674 -0.7049595322140357 0.000004999996682024271
vn -0.709247529368674 0.7049595322140357 -0.000004999996682024271
vn 0.7092335717734095 -0.704973574345544 0.000011999992754394028
vn -0.7092335717734095 0.704973574345544 -0.000011999992754394028
vn 0.08235097968261584 0.8360667937281344 -0.5424118661777879
vn -0.08235097968261584 -0.8360667937281344 0.5424118661777879
vn 0.7091961856190059 -0.7050111845236591 0
vn -0.7091961856190059 0.7050111845236591 0
vn 0.709232574794631 -0.7049745773474232 0.000011999992805501934
vn -0.709232574794631 0.7049745773474232 -0.000011999992805501934
vn 0 0 -1
vn 0 0 1
vn 0.08235596995403578 0.8360656949777903 -0.5424128021113022
vn -0.08235596995403578 -0.8360656949777903 0.5424128021113022
vn 0.704980092377425 0.7092270929339329 0
vn -0.704980092377425 -0.7092270929339329 0
vn -0.24466304193121202 0.9696081661748553 0
vn 0.24466304193121202 -0.9696081661748553 0
vn 0.7093312719626272 -0.7048752702541646 0
vn -0.7093312719626272 0.7048752702541646 0
vn 0 -1 0
vn 0 1 0
vn -0.7092510202359958 0.7049560201134532 0
vn 0.7092510202359958 -0.7049560201134532 0
vn 0.709247529368674 -0.7049595322140357 -0.000004999996682337336
vn -0.709247529368674 0.7049595322140357 0.000004999996682337336
vn 1 0 0
vn -1 0 0
vn 0.09797498793212756 0.9951888774196079 0
vn -0.09797498793212756 -0.9951888774196079 0
vn 0.08237796410735222 0.8360726357173794 0.5423987636731136
vn -0.08237796410735222 -0.8360726357173794 -0.5423987636731136
vn 0.08235700982506831 0.8360770997427496 0.5423950647069217
vn -0.08235700982506831 -0.8360770997427496 -0.5423950647069217
vn 0.7092335717734095 -0.704973574345544 -0.000011999992754707098
vn -0.7092335717734095 0.704973574345544 0.000011999992754707098
vn -0.09797102632667976 -0.9951892674263006 0
vn 0.09797102632667976 0.9951892674263006 0
vn 0.709232574794631 -0.7049745773474232 -0.000011999992805815003
vn -0.709232574794631 0.7049745773474232 0.000011999992805815003
vn 0.833132092102758 0.5530740611423409 0
vn -0.833132092102758 -0.5530740611423409 0
vn -0.8331500388627011 -0.5530470257971557 0
vn 0.8331500388627011 0.5530470257971557 0
vn 0.08235299052590664 0.836089903814133 -0.5423759376037196
vn -0.08235299052590664 -0.836089903814133 0.5423759376037196
vn 0.08235403031942419 0.8361013078186958 0.5423581996743605
vn -0.08235403031942419 -0.8361013078186958 -0.5423581996743605
vn -0.8331216605096574 -0.5530897746203874 0
vn 0.8331216605096574 0.5530897746203874 0
vn 0.08236499846796985 0.8360899844483085 -0.5423739899115725
vn -0.08236499846796985 -0.8360899844483085 0.5423739899115725
vn 0.08233999126693864 0.8361009113223058 0.5423609424766593
vn -0.08233999126693864 -0.8361009113223058 -0.5423609424766593
vn -0.5529659162887082 0.8332038738646079 0
vn 0.5529659162887082 -0.8332038738646079 0
usemtl material_0_0
f 1//1 2//1 3//1
f 3//2 2//2 1//2
f 1//2 3//2 2//2
f 2//1 3//1 1//1
f 4//3 2//3 1//3
f 1//4 2//4 4//4
f 1//4 2//4 4//4
f 4//3 2//3 1//3
f 2//5 5//5 3//5
f 3//6 5//6 2//6
f 2//6 3//6 5//6
f 5//5 3//5 2//5
f 6//7 1//7 3//7
f 3//8 1//8 6//8
f 6//8 3//8 1//8
f 1//7 3//7 6//7
f 4//9 7//9 2//9
f 2//10 7//10 4//10
f 4//10 2//10 7//10
f 7//9 2//9 4//9
f 4//11 1//11 8//11
f 8//12 1//12 4//12
f 8//12 1//12 4//12
f 4//11 1//11 8//11
f 9//13 5//13 2//13
f 2//14 5//14 9//14
f 9//14 2//14 5//14
f 5//13 2//13 9//13
f 10//15 3//15 5//15
f 5//16 3//16 10//16
f 5//16 3//16 10//16
f 10//15 3//15 5//15
f 6//17 11//17 1//17
f 1//18 11//18 6//18
f 1//18 11//18 6//18
f 6//17 11//17 1//17
f 12//7 6//7 3//7
f 3//8 6//8 12//8
f 12//8 3//8 6//8
f 6//7 3//7 12//7
f 13//19 7//19 4//19
f 4//20 7//20 13//20
f 13//20 4//20 7//20
f 7//19 4//19 13//19
f 7//11 9//11 2//11
f 2//12 9//12 7//12
f 7//12 2//12 9//12
f 9//11 2//11 7//11
f 8//11 1//11 11//11
f 11//12 1//12 8//12
f 8//12 11//12 1//12
f 1//11 11//11 8//11
f 4//21 8//21 14//21
f 14//22 8//22 4//22
f 4//22 14//22 8//22
f 8//21 14//21 4//21
f 15//23 5//23 9//23
f 9//24 5//24 15//24
f 15//24 9//24 5//24
f 5//23 9//23 15//23
f 10//15 12//15 3//15
f 3//16 12//16 10//16
f 10//16 3//16 12//16
f 12//15 3//15 10//15
f 15//23 10//23 5//23
f 5//24 10//24 15//24
f 15//24 5//24 10//24
f 10//23 5//23 15//23
f 6//17 16//17 11//17
f 11//18 16//18 6//18
f 6//18 11//18 16//18
f 16//17 11//17 6//17
f 17//25 6//25 12//25
f 12//26 6//26 17//26
f 17//26 12//26 6//26
f 6//25 12//25 17//25
f 18//19 7//19 13//19
f 13//20 7//20 18//20
f 18//20 13//20 7//20
f 7//19 13//19 18//19
f 4//21 14//21 13//21
f 13//22 14//22 4//22
f 13//22 14//22 4//22
f 4//21 14//21 13//21
f 7//11 19//11 9//11
f 9//12 19//12 7//12
f 7//12 9//12 19//12
f 19//11 9//11 7//11
f 16//27 8//27 11//27
f 11//28 8//28 16//28
f 16//28 11//28 8//28
f 8//27 11//27 16//27
f 14//27 8//27 16//27
f 16//28 8//28 14//28
f 16//28 8//28 14//28
f 14//27 8//27 16//27
f 20//29 15//29 9//29
f 9//30 15//30 20//30
f 20//30 9//30 15//30
f 15//29 9//29 20//29
f 17//31 12//31 10//31
f 10//32 12//32 17//32
f 17//32 10//32 12//32
f 12//31 10//31 17//31
f 15//33 17//33 10//33
f 10//34 17//34 15//34
f 15//34 10//34 17//34
f 17//33 10//33 15//33
f 14//12 16//12 6//12
f 6//11 16//11 14//11
f 14//11 6//11 16//11
f 16//12 6//12 14//12
f 17//35 13//35 6//35
f 6//36 13//36 17//36
f 17//36 6//36 13//36
f 13//35 6//35 17//35
f 19//37 7//37 18//37
f 18//38 7//38 19//38
f 19//38 18//38 7//38
f 7//37 18//37 19//37
f 18//39 13//39 17//39
f 17//40 13//40 18//40
f 17//40 13//40 18//40
f 18//39 13//39 17//39
f 14//12 6//12 13//12
f 13//11 6//11 14//11
f 13//11 6//11 14//11
f 14//12 6//12 13//12
f 19//11 21//11 9//11
f 9//12 21//12 19//12
f 19//12 9//12 21//12
f 21//11 9//11 19//11
f 22//12 15//12 20//12
f 20//11 15//11 22//11
f 22//11 20//11 15//11
f 15//12 20//12 22//12
f 20//29 9//29 21//29
f 21//30 9//30 20//30
f 21//30 9//30 20//30
f 20//29 9//29 21//29
f 18//12 17//12 15//12
f 15//11 17//11 18//11
f 18//11 15//11 17//11
f 17//12 15//12 18//12
f 19//37 18//37 22//37
f 22//38 18//38 19//38
f 22//38 18//38 19//38
f 19//37 18//37 22//37
f 19//11 23//11 21//11
f 21//12 23//12 19//12
f 19//12 21//12 23//12
f 23//11 21//11 19//11
f 18//12 15//12 22//12
f 22//11 15//11 18//11
f 18//11 22//11 15//11
f 15//12 22//12 18//12
f 22//12 20//12 24//12
f 24//11 20//11 22//11
f 22//11 24//11 20//11
f 20//12 24//12 22//12
f 20//41 21//41 25//41
f 25//42 21//42 20//42
f 20//42 25//42 21//42
f 21//41 25//41 20//41
f 24//43 19//43 22//43
f 22//44 19//44 24//44
f 22//44 19//44 24//44
f 24//43 19//43 22//43
f 24//43 23//43 19//43
f 19//44 23//44 24//44
f 24//44 19//44 23//44
f 23//43 19//43 24//43
f 26//45 21//45 23//45
f 23//46 21//46 26//46
f 26//46 23//46 21//46
f 21//45 23//45 26//45
f 25//47 24//47 20//47
f 20//48 24//48 25//48
f 25//48 20//48 24//48
f 24//47 20//47 25//47
f 25//41 21//41 26//41
f 26//42 21//42 25//42
f 25//42 26//42 21//42
f 21//41 26//41 25//41
f 24//49 27//49 23//49
f 23//50 27//50 24//50
f 24//50 23//50 27//50
f 27//49 23//49 24//49
f 27//51 26//51 23//51
f 23//52 26//52 27//52
f 27//52 23//52 26//52
f 26//51 23//51 27//51
f 28//53 24//53 25//53
f 25//54 24//54 28//54
f 28//54 25//54 24//54
f 24//53 25//53 28//53
f 27//55 25//55 26//55
f 26//56 25//56 27//56
f 27//56 26//56 25//56
f 25//55 26//55 27//55
f 24//49 28//49 27//49
f 27//50 28//50 24//50
f 24//50 27//50 28//50
f 28//49 27//49 24//49
f 28//55 25//55 27//55
f 27//56 25//56 28//56
f 27//56 25//56 28//56
f 28//55 25//55 27//55
