# SSTK version 0.8.0
# 2
mtllib original-2.mtl
o mesh2/mesh2-geometry#mesh2-geometry
v 0.039059 -0.288787 0.084662
v 0.031857 -0.204311 0.111541
v 0.039059 -0.204311 0.084662
v 0.031857 -0.288787 0.111541
v -0.068456 -0.204311 0.084662
v 0.031857 -0.288787 0.057783
v 0.012180 -0.204311 0.131218
v 0.031379 -0.288787 0.084662
v 0.031857 -0.365584 0.111541
v -0.061254 -0.204311 0.111541
v -0.061254 -0.204311 0.057783
v 0.031857 -0.204311 0.057783
v 0.039059 -0.365584 0.084662
v 0.012180 -0.288787 0.131218
v -0.041578 -0.204311 0.131218
v 0.025206 -0.288787 0.107701
v 0.031379 -0.365584 0.084662
v 0.012180 -0.365584 0.131218
v -0.061254 -0.288787 0.111541
v -0.068456 -0.288787 0.084662
v 0.012180 -0.288787 0.038106
v 0.025206 -0.288787 0.061623
v 0.031857 -0.365584 0.057783
v -0.014699 -0.204311 0.138420
v 0.025206 -0.365584 0.107701
v -0.041578 -0.288787 0.131218
v -0.061254 -0.288787 0.057783
v -0.041578 -0.204311 0.038106
v 0.012180 -0.204311 0.038106
v -0.014699 -0.288787 0.138420
v 0.008340 -0.288787 0.124567
v -0.014699 -0.365584 0.138420
v -0.014699 -0.288787 0.130740
v -0.037738 -0.288787 0.124567
v -0.061254 -0.365584 0.111541
v -0.060777 -0.288787 0.084662
v -0.068456 -0.365584 0.084662
v -0.061254 -0.365584 0.057783
v -0.014699 -0.288787 0.030904
v 0.008340 -0.288787 0.044757
v 0.012180 -0.365584 0.038106
v 0.025206 -0.365584 0.061623
v -0.014699 -0.365584 0.130740
v -0.041578 -0.365584 0.131218
v -0.054604 -0.288787 0.107701
v -0.054604 -0.288787 0.061623
v -0.041578 -0.365584 0.038106
v -0.041578 -0.288787 0.038106
v -0.014699 -0.204311 0.030904
v -0.014699 -0.288787 0.038584
v -0.014699 -0.365584 0.030904
v -0.037738 -0.365584 0.124567
v -0.054604 -0.365584 0.107701
v -0.060777 -0.365584 0.084662
v -0.054604 -0.365584 0.061623
v -0.037738 -0.288787 0.044757
v 0.008340 -0.365584 0.044757
v -0.014699 -0.365584 0.038584
v 0.008340 -0.365584 0.124567
v -0.037738 -0.365584 0.044757
vn -0.9659274161708828 0 -0.25881311150991193
vn 0.9659274161708828 0 0.25881311150991193
vn 0 -1 0
vn 0 1 0
vn 0.9659274161708828 0 -0.25881311150991193
vn -0.9659274161708828 0 0.25881311150991193
vn -0.7071067811865476 0 -0.7071067811865476
vn 0.7071067811865476 0 0.7071067811865476
vn 0.9998421188187449 0 -0.017769002111623914
vn -0.9998421188187449 0 0.017769002111623914
vn 0 0 -1
vn 0 0 1
vn -0.5000110228800049 0 0.8660190396281661
vn 0.5000110228800049 0 -0.8660190396281661
vn 0.7071067811865476 0 -0.7071067811865476
vn -0.7071067811865476 0 0.7071067811865476
vn 0.9998421188187449 0 0.017769002111623914
vn -0.9998421188187449 0 -0.017769002111623914
vn -0.25881311150991193 0 -0.9659274161708828
vn 0.25881311150991193 0 0.9659274161708828
vn 0.9659296170452052 0 0.25880489739358375
vn -0.9659296170452052 0 -0.25880489739358375
vn -0.5000110228800049 0 -0.8660190396281661
vn 0.5000110228800049 0 0.8660190396281661
vn 0.8747658334131097 0 0.4845459077250243
vn -0.8747658334131097 0 -0.4845459077250243
vn -0.017769002111623914 0 0.9998421188187449
vn 0.017769002111623914 0 -0.9998421188187449
vn 0.25881311150991193 0 -0.9659274161708828
vn -0.25881311150991193 0 0.9659274161708828
vn 0.8747658334131097 0 -0.4845459077250243
vn -0.8747658334131097 0 0.4845459077250243
vn -0.8660190396281661 0 -0.5000110228800049
vn 0.8660190396281661 0 0.5000110228800049
vn -0.4845459077250243 0 0.8747658334131097
vn 0.4845459077250243 0 -0.8747658334131097
vn -0.017769002111623914 0 -0.9998421188187449
vn 0.017769002111623914 0 0.9998421188187449
vn -1 0 0
vn 1 0 0
vn 0.25880489739358375 0 0.9659296170452052
vn -0.25880489739358375 0 -0.9659296170452052
vn -0.5152937674397305 0 -0.8570136132161315
vn 0.5152937674397305 0 0.8570136132161315
vn 0.8660190396281661 0 -0.5000110228800049
vn -0.8660190396281661 0 0.5000110228800049
usemtl material_0_0
f 1//1 2//1 3//1
f 3//2 2//2 1//2
f 3//2 2//2 1//2
f 1//1 2//1 3//1
f 1//2 2//2 4//2
f 4//1 2//1 1//1
f 3//3 2//3 5//3
f 5//4 2//4 3//4
f 3//4 5//4 2//4
f 2//3 5//3 3//3
f 6//5 3//5 1//5
f 1//6 3//6 6//6
f 4//7 7//7 2//7
f 2//8 7//8 4//8
f 2//8 7//8 4//8
f 4//7 7//7 2//7
f 1//3 4//3 8//3
f 8//4 4//4 1//4
f 1//1 9//1 4//1
f 4//2 9//2 1//2
f 2//3 10//3 5//3
f 5//4 10//4 2//4
f 2//4 5//4 10//4
f 10//3 5//3 2//3
f 3//3 5//3 11//3
f 11//4 5//4 3//4
f 3//4 11//4 5//4
f 5//3 11//3 3//3
f 6//6 3//6 12//6
f 12//5 3//5 6//5
f 12//5 3//5 6//5
f 6//6 3//6 12//6
f 1//3 8//3 6//3
f 6//4 8//4 1//4
f 6//6 13//6 1//6
f 1//5 13//5 6//5
f 4//8 7//8 14//8
f 14//7 7//7 4//7
f 2//3 7//3 15//3
f 15//4 7//4 2//4
f 2//4 15//4 7//4
f 7//3 15//3 2//3
f 4//4 8//4 16//4
f 16//3 8//3 4//3
f 4//3 16//3 8//3
f 8//4 16//4 4//4
f 4//9 17//9 8//9
f 8//10 17//10 4//10
f 13//11 8//11 1//11
f 1//12 8//12 13//12
f 9//1 1//1 13//1
f 13//2 1//2 9//2
f 16//13 9//13 4//13
f 4//14 9//14 16//14
f 18//7 4//7 9//7
f 9//8 4//8 18//8
f 17//9 4//9 9//9
f 9//10 4//10 17//10
f 2//3 15//3 10//3
f 10//4 15//4 2//4
f 2//4 10//4 15//4
f 15//3 10//3 2//3
f 5//5 10//5 19//5
f 19//6 10//6 5//6
f 5//6 19//6 10//6
f 10//5 19//5 5//5
f 11//2 5//2 20//2
f 20//1 5//1 11//1
f 11//1 20//1 5//1
f 5//2 20//2 11//2
f 3//3 11//3 12//3
f 12//4 11//4 3//4
f 3//4 12//4 11//4
f 11//3 12//3 3//3
f 21//15 12//15 6//15
f 6//16 12//16 21//16
f 6//4 22//4 8//4
f 8//3 22//3 6//3
f 6//3 8//3 22//3
f 22//4 8//4 6//4
f 8//17 23//17 6//17
f 6//18 23//18 8//18
f 13//6 6//6 23//6
f 23//5 6//5 13//5
f 7//19 14//19 24//19
f 24//20 14//20 7//20
f 24//20 14//20 7//20
f 7//19 14//19 24//19
f 4//3 14//3 16//3
f 16//4 14//4 4//4
f 4//7 18//7 14//7
f 14//8 18//8 4//8
f 7//3 24//3 15//3
f 15//4 24//4 7//4
f 7//4 15//4 24//4
f 24//3 15//3 7//3
f 8//21 16//21 25//21
f 25//22 16//22 8//22
f 8//21 25//21 17//21
f 17//22 25//22 8//22
f 8//11 13//11 17//11
f 17//12 13//12 8//12
f 23//17 8//17 17//17
f 17//18 8//18 23//18
f 13//4 17//4 9//4
f 9//3 17//3 13//3
f 9//13 16//13 25//13
f 25//14 16//14 9//14
f 9//4 25//4 18//4
f 18//3 25//3 9//3
f 10//15 15//15 26//15
f 26//16 15//16 10//16
f 10//16 26//16 15//16
f 15//15 26//15 10//15
f 19//16 26//16 10//16
f 10//15 26//15 19//15
f 20//6 19//6 5//6
f 5//5 19//5 20//5
f 27//1 20//1 11//1
f 11//2 20//2 27//2
f 12//3 11//3 28//3
f 28//4 11//4 12//4
f 12//4 28//4 11//4
f 11//3 28//3 12//3
f 21//16 12//16 29//16
f 29//15 12//15 21//15
f 29//15 12//15 21//15
f 21//16 12//16 29//16
f 6//3 22//3 21//3
f 21//4 22//4 6//4
f 21//16 23//16 6//16
f 6//15 23//15 21//15
f 23//23 22//23 6//23
f 6//24 22//24 23//24
f 13//4 23//4 17//4
f 17//3 23//3 13//3
f 24//20 30//20 14//20
f 14//19 30//19 24//19
f 16//4 31//4 14//4
f 14//3 31//3 16//3
f 16//3 14//3 31//3
f 31//4 14//4 16//4
f 14//25 25//25 16//25
f 16//26 25//26 14//26
f 25//25 14//25 18//25
f 18//26 14//26 25//26
f 32//19 14//19 18//19
f 18//20 14//20 32//20
f 33//27 18//27 14//27
f 14//28 18//28 33//28
f 24//29 30//29 15//29
f 15//30 30//30 24//30
f 15//30 30//30 24//30
f 24//29 30//29 15//29
f 15//30 26//30 30//30
f 30//29 26//29 15//29
f 34//3 26//3 19//3
f 19//4 26//4 34//4
f 26//15 35//15 19//15
f 19//16 35//16 26//16
f 36//3 19//3 20//3
f 20//4 19//4 36//4
f 19//5 37//5 20//5
f 20//6 37//6 19//6
f 36//3 20//3 27//3
f 27//4 20//4 36//4
f 20//2 38//2 27//2
f 27//1 38//1 20//1
f 28//8 11//8 27//8
f 27//7 11//7 28//7
f 28//7 27//7 11//7
f 11//8 27//8 28//8
f 12//3 28//3 29//3
f 29//4 28//4 12//4
f 12//4 29//4 28//4
f 28//3 29//3 12//3
f 29//29 21//29 39//29
f 39//30 21//30 29//30
f 22//4 21//4 40//4
f 40//3 21//3 22//3
f 22//3 40//3 21//3
f 21//4 40//4 22//4
f 22//31 41//31 21//31
f 21//32 41//32 22//32
f 23//16 21//16 41//16
f 41//15 21//15 23//15
f 22//23 23//23 42//23
f 42//24 23//24 22//24
f 14//3 30//3 33//3
f 33//4 30//4 14//4
f 14//19 32//19 30//19
f 30//20 32//20 14//20
f 14//4 31//4 33//4
f 33//3 31//3 14//3
f 14//3 33//3 31//3
f 31//4 33//4 14//4
f 18//4 43//4 32//4
f 32//3 43//3 18//3
f 18//27 33//27 43//27
f 43//28 33//28 18//28
f 30//3 26//3 33//3
f 33//4 26//4 30//4
f 32//29 26//29 30//29
f 30//30 26//30 32//30
f 33//4 34//4 26//4
f 26//3 34//3 33//3
f 33//3 26//3 34//3
f 34//4 26//4 33//4
f 34//33 44//33 26//33
f 26//34 44//34 34//34
f 34//4 45//4 19//4
f 19//3 45//3 34//3
f 34//3 19//3 45//3
f 45//4 19//4 34//4
f 35//35 34//35 19//35
f 19//36 34//36 35//36
f 35//15 26//15 44//15
f 44//16 26//16 35//16
f 37//5 19//5 35//5
f 35//6 19//6 37//6
f 36//18 35//18 19//18
f 19//17 35//17 36//17
f 45//4 36//4 19//4
f 19//3 36//3 45//3
f 45//3 19//3 36//3
f 36//4 19//4 45//4
f 36//11 37//11 20//11
f 20//12 37//12 36//12
f 38//2 20//2 37//2
f 37//1 20//1 38//1
f 46//3 36//3 27//3
f 27//4 36//4 46//4
f 36//9 38//9 27//9
f 27//10 38//10 36//10
f 47//8 27//8 38//8
f 38//7 27//7 47//7
f 38//13 46//13 27//13
f 27//14 46//14 38//14
f 48//7 27//7 28//7
f 28//8 27//8 48//8
f 29//3 28//3 49//3
f 49//4 28//4 29//4
f 29//4 49//4 28//4
f 28//3 49//3 29//3
f 21//3 50//3 39//3
f 39//4 50//4 21//4
f 51//30 21//30 39//30
f 39//29 21//29 51//29
f 49//30 39//30 29//30
f 29//29 39//29 49//29
f 29//29 39//29 49//29
f 49//30 39//30 29//30
f 21//4 50//4 40//4
f 40//3 50//3 21//3
f 21//3 40//3 50//3
f 50//4 40//4 21//4
f 40//15 22//15 42//15
f 42//16 22//16 40//16
f 41//31 22//31 42//31
f 42//32 22//32 41//32
f 41//37 50//37 21//37
f 21//38 50//38 41//38
f 21//30 51//30 41//30
f 41//29 51//29 21//29
f 23//4 41//4 42//4
f 42//3 41//3 23//3
f 33//39 32//39 30//39
f 30//40 32//40 33//40
f 33//41 43//41 31//41
f 31//42 43//42 33//42
f 43//4 44//4 32//4
f 32//3 44//3 43//3
f 32//39 33//39 43//39
f 43//40 33//40 32//40
f 33//38 44//38 43//38
f 43//37 44//37 33//37
f 44//38 33//38 26//38
f 26//37 33//37 44//37
f 26//29 32//29 44//29
f 44//30 32//30 26//30
f 44//33 34//33 52//33
f 52//34 34//34 44//34
f 45//15 34//15 53//15
f 53//16 34//16 45//16
f 53//16 34//16 45//16
f 45//15 34//15 53//15
f 34//35 35//35 52//35
f 52//36 35//36 34//36
f 52//4 35//4 44//4
f 44//3 35//3 52//3
f 54//4 37//4 35//4
f 35//3 37//3 54//3
f 35//18 36//18 54//18
f 54//17 36//17 35//17
f 37//11 36//11 54//11
f 54//12 36//12 37//12
f 54//4 38//4 37//4
f 37//3 38//3 54//3
f 55//22 36//22 46//22
f 46//21 36//21 55//21
f 48//3 46//3 27//3
f 27//4 46//4 48//4
f 38//9 36//9 54//9
f 54//10 36//10 38//10
f 27//8 47//8 48//8
f 48//7 47//7 27//7
f 47//4 38//4 55//4
f 55//3 38//3 47//3
f 46//13 38//13 55//13
f 55//14 38//14 46//14
f 28//20 48//20 49//20
f 49//19 48//19 28//19
f 49//19 48//19 28//19
f 28//20 48//20 49//20
f 39//4 56//4 50//4
f 50//3 56//3 39//3
f 50//3 56//3 39//3
f 39//4 56//4 50//4
f 50//40 51//40 39//40
f 39//39 51//39 50//39
f 51//43 56//43 39//43
f 39//44 56//44 51//44
f 39//20 47//20 51//20
f 51//19 47//19 39//19
f 49//19 39//19 48//19
f 48//20 39//20 49//20
f 40//15 42//15 57//15
f 57//16 42//16 40//16
f 50//37 41//37 58//37
f 58//38 41//38 50//38
f 41//4 51//4 58//4
f 58//3 51//3 41//3
f 31//41 43//41 59//41
f 59//42 43//42 31//42
f 53//16 52//16 34//16
f 34//15 52//15 53//15
f 55//22 54//22 36//22
f 36//21 54//21 55//21
f 55//4 38//4 54//4
f 54//3 38//3 55//3
f 48//26 55//26 46//26
f 46//25 55//25 48//25
f 56//4 48//4 46//4
f 46//3 48//3 56//3
f 56//3 46//3 48//3
f 48//4 46//4 56//4
f 56//45 47//45 48//45
f 48//46 47//46 56//46
f 47//20 39//20 48//20
f 48//19 39//19 47//19
f 55//26 48//26 47//26
f 47//25 48//25 55//25
f 39//3 56//3 48//3
f 48//4 56//4 39//4
f 50//42 58//42 56//42
f 56//41 58//41 50//41
f 51//40 50//40 58//40
f 58//39 50//39 51//39
f 56//43 51//43 60//43
f 60//44 51//44 56//44
f 51//4 47//4 60//4
f 60//3 47//3 51//3
f 47//45 56//45 60//45
f 60//46 56//46 47//46
f 56//42 58//42 60//42
f 60//41 58//41 56//41
